{"glyphs":{"0":{"ha":861,"x_min":0,"x_max":0,"o":"m 139 632 l 139 271 b 431 -21 139 96 256 -21 b 722 271 606 -21 722 96 l 722 632 b 431 924 722 807 606 924 b 139 632 256 924 139 807 z m 156 271 l 156 632 b 431 907 156 799 264 907 b 706 632 597 907 706 799 l 706 271 b 431 -4 706 104 597 -4 b 156 271 264 -4 156 104 z "},"1":{"ha":538,"x_min":0,"x_max":0,"o":"m 69 664 l 96 664 l 354 888 l 354 0 l 371 0 l 371 903 l 354 903 l 354 901 l 344 901 z "},"2":{"ha":833,"x_min":0,"x_max":0,"o":"m 139 0 l 667 0 l 667 17 l 163 17 l 274 319 l 375 319 b 667 611 550 319 667 436 b 375 903 667 786 550 903 l 208 903 l 208 886 l 375 886 b 650 611 540 886 650 776 b 375 336 650 439 535 336 l 261 336 z "},"3":{"ha":840,"x_min":0,"x_max":0,"o":"m 139 0 l 451 0 b 715 253 599 0 715 111 b 496 503 715 381 621 482 b 624 694 578 531 624 604 b 410 901 624 810 544 901 l 139 901 l 139 885 l 410 885 b 607 694 536 885 607 801 b 422 506 607 590 540 508 l 181 506 l 181 489 l 410 489 l 415 489 l 451 489 b 699 253 590 489 699 385 b 451 17 699 121 590 17 l 139 17 z "},"4":{"ha":886,"x_min":0,"x_max":0,"o":"m 167 201 l 586 201 l 586 0 l 603 0 l 603 201 l 719 201 l 719 218 l 603 218 l 603 681 l 586 681 l 586 218 l 188 218 l 332 901 l 315 901 z "},"5":{"ha":785,"x_min":0,"x_max":0,"o":"m 139 0 l 382 0 b 674 292 557 0 674 117 b 382 583 674 467 557 583 l 156 583 l 156 885 l 597 885 l 597 901 l 139 901 l 139 567 l 382 567 b 657 292 549 567 657 458 b 382 17 657 125 549 17 l 139 17 z "},"6":{"ha":861,"x_min":0,"x_max":0,"o":"m 139 632 l 139 271 b 431 -21 139 96 256 -21 b 722 271 606 -21 722 96 l 722 307 b 431 600 722 503 574 600 b 156 414 315 600 199 538 l 156 632 b 435 907 156 796 272 907 b 706 646 593 907 706 800 l 722 646 b 435 924 722 831 579 924 b 139 632 288 924 139 828 z m 156 271 l 156 307 b 431 583 156 469 269 583 b 706 307 592 583 706 468 l 706 271 b 431 -4 706 106 596 -4 b 156 271 267 -4 156 106 z "},"7":{"ha":728,"x_min":0,"x_max":0,"o":"m 243 0 l 261 0 l 658 901 l 69 901 l 69 885 l 633 885 z "},"8":{"ha":861,"x_min":0,"x_max":0,"o":"m 139 618 l 139 601 b 165 438 139 540 151 488 b 139 301 149 397 139 351 l 139 285 b 431 -21 139 110 256 -21 b 722 285 606 -21 722 110 l 722 301 b 696 438 722 351 713 397 b 722 601 710 488 722 540 l 722 618 b 431 924 722 793 606 924 b 139 618 256 924 139 793 z m 156 285 l 156 301 b 431 590 156 467 265 590 b 706 301 596 590 706 467 l 706 285 b 431 -4 706 119 596 -4 b 156 285 265 -4 156 119 z m 156 601 l 156 618 b 431 907 156 783 265 907 b 706 618 596 907 706 783 l 706 601 b 683 461 706 543 696 499 b 431 607 636 550 546 607 b 178 461 315 607 225 550 b 156 601 165 499 156 543 z "},"9":{"ha":861,"x_min":0,"x_max":0,"o":"m 722 271 l 722 632 b 431 924 722 807 606 924 b 139 632 256 924 139 807 l 139 596 b 431 303 139 400 288 303 b 706 489 546 303 663 365 l 706 271 b 426 -4 706 107 589 -4 b 156 257 268 -4 156 103 l 139 257 b 426 -21 139 72 282 -21 b 722 271 574 -21 722 75 z m 156 596 l 156 632 b 431 907 156 797 265 907 b 706 632 594 907 706 797 l 706 596 b 431 319 706 433 592 319 b 156 596 269 319 156 435 z "}," ":{"ha":417,"x_min":0,"x_max":0,"o":""},"A":{"ha":889,"x_min":0,"x_max":0,"o":"m 819 0 l 500 903 l 389 903 l 69 0 l 88 0 l 190 292 l 699 292 l 801 0 z m 197 308 l 401 886 l 489 886 l 693 308 z "},"Á":{"ha":889,"x_min":0,"x_max":0,"o":"m 819 0 l 500 903 l 389 903 l 69 0 l 88 0 l 190 292 l 699 292 l 801 0 z m 197 308 l 401 886 l 489 886 l 693 308 z m 438 974 l 457 974 l 535 1113 l 515 1113 z "},"Ă":{"ha":889,"x_min":0,"x_max":0,"o":"m 819 0 l 500 903 l 389 903 l 69 0 l 88 0 l 190 292 l 699 292 l 801 0 z m 197 308 l 401 886 l 489 886 l 693 308 z m 307 1111 b 444 971 307 1026 363 971 b 582 1111 526 971 582 1026 l 565 1111 b 444 988 565 1036 518 988 b 324 1111 371 988 324 1036 z "},"Â":{"ha":889,"x_min":0,"x_max":0,"o":"m 819 0 l 500 903 l 389 903 l 69 0 l 88 0 l 190 292 l 699 292 l 801 0 z m 197 308 l 401 886 l 489 886 l 693 308 z m 271 975 l 296 975 l 444 1101 l 593 975 l 618 975 l 457 1113 l 432 1113 z "},"Ä":{"ha":889,"x_min":0,"x_max":0,"o":"m 819 0 l 500 903 l 389 903 l 69 0 l 88 0 l 190 292 l 699 292 l 801 0 z m 197 308 l 401 886 l 489 886 l 693 308 z m 304 1058 b 333 1029 304 1042 317 1029 b 363 1058 350 1029 363 1042 b 333 1088 363 1075 350 1088 b 304 1058 317 1088 304 1075 z m 526 1058 b 556 1029 526 1042 539 1029 b 585 1058 572 1029 585 1042 b 556 1088 585 1075 572 1088 b 526 1058 539 1088 526 1075 z "},"À":{"ha":889,"x_min":0,"x_max":0,"o":"m 819 0 l 500 903 l 389 903 l 69 0 l 88 0 l 190 292 l 699 292 l 801 0 z m 197 308 l 401 886 l 489 886 l 693 308 z m 354 1113 l 432 974 l 451 974 l 374 1113 z "},"Ā":{"ha":889,"x_min":0,"x_max":0,"o":"m 819 0 l 500 903 l 389 903 l 69 0 l 88 0 l 190 292 l 699 292 l 801 0 z m 197 308 l 401 886 l 489 886 l 693 308 z m 215 1047 l 674 1047 l 674 1064 l 215 1064 z "},"Ą":{"ha":889,"x_min":0,"x_max":0,"o":"m 819 0 l 500 903 l 389 903 l 69 0 l 88 0 l 190 292 l 699 292 l 801 0 l 671 -278 l 954 -278 l 954 -261 l 697 -261 z m 197 308 l 401 886 l 489 886 l 693 308 z "},"Å":{"ha":889,"x_min":0,"x_max":0,"o":"m 819 0 l 500 903 l 389 903 l 69 0 l 88 0 l 190 292 l 699 292 l 801 0 z m 197 308 l 401 886 l 489 886 l 693 308 z m 340 1075 b 444 971 340 1017 385 971 b 549 1075 501 971 549 1017 b 444 1179 549 1133 501 1179 b 340 1075 385 1179 340 1133 z m 356 1075 b 444 1164 357 1125 396 1164 b 532 1075 494 1164 533 1125 b 444 986 533 1025 494 986 b 356 1075 396 986 357 1025 z "},"Ã":{"ha":889,"x_min":0,"x_max":0,"o":"m 819 0 l 500 903 l 389 903 l 69 0 l 88 0 l 190 292 l 699 292 l 801 0 z m 197 308 l 401 886 l 489 886 l 693 308 z m 247 974 l 264 974 b 342 1101 264 1053 296 1101 b 556 969 417 1101 475 969 b 649 1111 604 969 649 1017 l 632 1111 b 554 986 632 1028 594 986 b 342 1118 482 986 431 1118 b 247 974 288 1118 247 1065 z "},"Æ":{"ha":1104,"x_min":0,"x_max":0,"o":"m 69 0 l 88 0 l 229 292 l 596 292 l 596 0 l 965 0 l 965 17 l 613 17 l 613 442 l 896 442 l 896 458 l 613 458 l 613 886 l 965 886 l 965 903 l 506 903 z m 236 308 l 517 886 l 596 886 l 596 308 z "},"B":{"ha":808,"x_min":0,"x_max":0,"o":"m 167 0 l 438 0 b 739 303 615 0 739 129 b 596 567 739 408 692 511 b 597 604 597 579 597 592 b 299 903 597 783 478 903 l 167 903 z m 183 17 l 183 306 l 299 306 b 593 549 458 306 571 401 b 722 303 664 507 722 418 b 438 17 722 139 606 17 z m 183 322 l 183 886 l 299 886 b 581 604 469 886 581 775 b 299 322 581 433 469 322 z "},"C":{"ha":785,"x_min":0,"x_max":0,"o":"m 549 0 l 715 0 l 715 17 l 549 17 b 128 451 296 17 128 190 b 549 886 128 715 297 886 l 715 886 l 715 903 l 549 903 b 111 451 286 903 111 721 b 549 0 111 181 286 0 z "},"Ć":{"ha":854,"x_min":0,"x_max":0,"o":"m 549 0 l 715 0 l 715 17 l 549 17 b 128 451 296 17 128 190 b 549 886 128 715 297 886 l 715 886 l 715 903 l 549 903 b 111 451 286 903 111 721 b 549 0 111 181 286 0 z m 563 974 l 582 974 l 660 1113 l 640 1113 z "},"Č":{"ha":854,"x_min":0,"x_max":0,"o":"m 549 0 l 715 0 l 715 17 l 549 17 b 128 451 296 17 128 190 b 549 886 128 715 297 886 l 715 886 l 715 903 l 549 903 b 111 451 286 903 111 721 b 549 0 111 181 286 0 z m 396 1111 l 557 974 l 582 974 l 743 1111 l 718 1111 l 569 985 l 421 1111 z "},"Ç":{"ha":854,"x_min":0,"x_max":0,"o":"m 549 0 l 715 0 l 715 17 l 549 17 b 128 451 296 17 128 190 b 549 886 128 715 297 886 l 715 886 l 715 903 l 549 903 b 111 451 286 903 111 721 b 549 0 111 181 286 0 z m 540 -318 b 681 -181 625 -318 681 -262 b 540 -43 681 -99 625 -43 l 540 -60 b 664 -181 615 -60 664 -107 b 540 -301 664 -254 615 -301 z "},"Ċ":{"ha":854,"x_min":0,"x_max":0,"o":"m 549 0 l 715 0 l 715 17 l 549 17 b 128 451 296 17 128 190 b 549 886 128 715 297 886 l 715 886 l 715 903 l 549 903 b 111 451 286 903 111 721 b 549 0 111 181 286 0 z m 540 1058 b 569 1029 540 1042 553 1029 b 599 1058 586 1029 599 1042 b 569 1088 599 1075 586 1088 b 540 1058 553 1088 540 1075 z "},"D":{"ha":882,"x_min":0,"x_max":0,"o":"m 167 0 l 333 0 b 771 451 596 0 771 181 b 333 903 771 721 596 903 l 167 903 z m 183 17 l 183 886 l 333 886 b 754 451 585 886 754 715 b 333 17 754 190 586 17 z "},"Ð":{"ha":910,"x_min":0,"x_max":0,"o":"m 167 442 l 194 442 l 194 0 l 361 0 b 799 451 624 0 799 181 b 361 903 799 721 624 903 l 194 903 l 194 458 l 167 458 z m 211 17 l 211 442 l 439 442 l 439 458 l 211 458 l 211 886 l 361 886 b 782 451 613 886 782 715 b 361 17 782 190 614 17 z "},"Ď":{"ha":896,"x_min":0,"x_max":0,"o":"m 167 0 l 333 0 b 771 451 596 0 771 181 b 333 903 771 721 596 903 l 167 903 z m 132 1110 l 293 972 l 318 972 l 479 1110 l 454 1110 l 306 983 l 157 1110 z m 183 17 l 183 886 l 333 886 b 754 451 585 886 754 715 b 333 17 754 190 586 17 z "},"Đ":{"ha":910,"x_min":0,"x_max":0,"o":"m 167 442 l 194 442 l 194 0 l 361 0 b 799 451 624 0 799 181 b 361 903 799 721 624 903 l 194 903 l 194 458 l 167 458 z m 211 17 l 211 442 l 439 442 l 439 458 l 211 458 l 211 886 l 361 886 b 782 451 613 886 782 715 b 361 17 782 190 614 17 z "},"E":{"ha":722,"x_min":0,"x_max":0,"o":"m 167 903 l 167 0 l 583 0 l 583 17 l 183 17 l 183 442 l 514 442 l 514 458 l 183 458 l 183 886 l 583 886 l 583 903 z "},"É":{"ha":722,"x_min":0,"x_max":0,"o":"m 167 903 l 167 0 l 583 0 l 583 17 l 183 17 l 183 442 l 514 442 l 514 458 l 183 458 l 183 886 l 583 886 l 583 903 z m 375 974 l 394 974 l 472 1113 l 453 1113 z "},"Ě":{"ha":722,"x_min":0,"x_max":0,"o":"m 167 903 l 167 0 l 583 0 l 583 17 l 183 17 l 183 442 l 514 442 l 514 458 l 183 458 l 183 886 l 583 886 l 583 903 z m 208 1111 l 369 974 l 394 974 l 556 1111 l 531 1111 l 382 985 l 233 1111 z "},"Ê":{"ha":722,"x_min":0,"x_max":0,"o":"m 167 903 l 167 0 l 583 0 l 583 17 l 183 17 l 183 442 l 514 442 l 514 458 l 183 458 l 183 886 l 583 886 l 583 903 z m 208 975 l 233 975 l 382 1101 l 531 975 l 556 975 l 394 1113 l 369 1113 z "},"Ë":{"ha":722,"x_min":0,"x_max":0,"o":"m 167 903 l 167 0 l 583 0 l 583 17 l 183 17 l 183 442 l 514 442 l 514 458 l 183 458 l 183 886 l 583 886 l 583 903 z m 242 1058 b 271 1029 242 1042 254 1029 b 300 1058 288 1029 300 1042 b 271 1088 300 1075 288 1088 b 242 1058 254 1088 242 1075 z m 464 1058 b 493 1029 464 1042 476 1029 b 522 1058 510 1029 522 1042 b 493 1088 522 1075 510 1088 b 464 1058 476 1088 464 1075 z "},"Ė":{"ha":722,"x_min":0,"x_max":0,"o":"m 167 903 l 167 0 l 583 0 l 583 17 l 183 17 l 183 442 l 514 442 l 514 458 l 183 458 l 183 886 l 583 886 l 583 903 z m 353 1058 b 382 1029 353 1042 365 1029 b 411 1058 399 1029 411 1042 b 382 1088 411 1075 399 1088 b 353 1058 365 1088 353 1075 z "},"È":{"ha":722,"x_min":0,"x_max":0,"o":"m 167 903 l 167 0 l 583 0 l 583 17 l 183 17 l 183 442 l 514 442 l 514 458 l 183 458 l 183 886 l 583 886 l 583 903 z m 292 1113 l 369 974 l 389 974 l 311 1113 z "},"Ē":{"ha":722,"x_min":0,"x_max":0,"o":"m 167 903 l 167 0 l 583 0 l 583 17 l 183 17 l 183 442 l 514 442 l 514 458 l 183 458 l 183 886 l 583 886 l 583 903 z m 153 1047 l 611 1047 l 611 1064 l 153 1064 z "},"Ę":{"ha":722,"x_min":0,"x_max":0,"o":"m 167 903 l 167 0 l 551 0 l 421 -278 l 704 -278 l 704 -261 l 447 -261 l 569 0 l 583 0 l 583 17 l 183 17 l 183 442 l 514 442 l 514 458 l 183 458 l 183 886 l 583 886 l 583 903 z "},"Ẽ":{"ha":722,"x_min":0,"x_max":0,"o":"m 167 903 l 167 0 l 583 0 l 583 17 l 183 17 l 183 442 l 514 442 l 514 458 l 183 458 l 183 886 l 583 886 l 583 903 z m 185 974 l 201 974 b 279 1101 201 1053 233 1101 b 493 969 354 1101 413 969 b 586 1111 542 969 586 1017 l 569 1111 b 492 986 569 1028 532 986 b 279 1118 419 986 368 1118 b 185 974 225 1118 185 1065 z "},"F":{"ha":722,"x_min":0,"x_max":0,"o":"m 167 903 l 167 0 l 183 0 l 183 436 l 583 436 l 583 453 l 183 453 l 183 886 l 583 886 l 583 903 z "},"G":{"ha":840,"x_min":0,"x_max":0,"o":"m 549 0 l 729 0 l 729 458 l 713 458 l 713 17 l 549 17 b 128 451 296 17 128 190 b 549 886 128 715 297 886 l 715 886 l 715 903 l 549 903 b 111 451 286 903 111 721 b 549 0 111 181 286 0 z "},"Ğ":{"ha":840,"x_min":0,"x_max":0,"o":"m 549 0 l 729 0 l 729 458 l 713 458 l 713 17 l 549 17 b 128 451 296 17 128 190 b 549 886 128 715 297 886 l 715 886 l 715 903 l 549 903 b 111 451 286 903 111 721 b 549 0 111 181 286 0 z m 425 1110 b 563 969 425 1025 481 969 b 700 1110 644 969 700 1025 l 683 1110 b 563 986 683 1035 636 986 b 442 1110 489 986 442 1035 z "},"Ģ":{"ha":840,"x_min":0,"x_max":0,"o":"m 549 0 l 729 0 l 729 458 l 713 458 l 713 17 l 549 17 b 128 451 296 17 128 190 b 549 886 128 715 297 886 l 715 886 l 715 903 l 549 903 b 111 451 286 903 111 721 b 549 0 111 181 286 0 z m 453 -278 l 471 -278 l 571 -64 l 553 -64 z "},"Ġ":{"ha":840,"x_min":0,"x_max":0,"o":"m 549 0 l 729 0 l 729 458 l 713 458 l 713 17 l 549 17 b 128 451 296 17 128 190 b 549 886 128 715 297 886 l 715 886 l 715 903 l 549 903 b 111 451 286 903 111 721 b 549 0 111 181 286 0 z m 533 1057 b 563 1028 533 1040 546 1028 b 592 1057 579 1028 592 1040 b 563 1086 592 1074 579 1086 b 533 1057 546 1086 533 1074 z "},"H":{"ha":882,"x_min":0,"x_max":0,"o":"m 167 903 l 167 0 l 183 0 l 183 444 l 699 444 l 699 0 l 715 0 l 715 903 l 699 903 l 699 461 l 183 461 l 183 903 z "},"Ħ":{"ha":882,"x_min":0,"x_max":0,"o":"m 42 739 l 42 722 l 167 722 l 167 0 l 183 0 l 183 444 l 699 444 l 699 0 l 715 0 l 715 722 l 840 722 l 840 739 l 715 739 l 715 903 l 699 903 l 699 739 l 183 739 l 183 903 l 167 903 l 167 739 z m 183 461 l 183 722 l 699 722 l 699 461 z "},"I":{"ha":417,"x_min":0,"x_max":0,"o":"m 200 0 l 217 0 l 217 903 l 200 903 z "},"Ĳ":{"ha":744,"x_min":0,"x_max":0,"o":"m 167 417 l 183 417 l 183 901 l 167 901 z m 167 208 b 372 -14 167 75 260 -14 b 578 208 485 -14 578 75 l 578 901 l 561 901 l 561 208 b 372 3 561 83 476 3 b 183 208 268 3 183 83 l 183 251 l 167 251 z "},"Í":{"ha":417,"x_min":0,"x_max":0,"o":"m 200 0 l 217 0 l 217 903 l 200 903 z m 201 972 l 221 972 l 299 1111 l 279 1111 z "},"Î":{"ha":417,"x_min":0,"x_max":0,"o":"m 200 0 l 217 0 l 217 903 l 200 903 z m 35 974 l 60 974 l 208 1100 l 357 974 l 382 974 l 221 1111 l 196 1111 z "},"Ï":{"ha":417,"x_min":0,"x_max":0,"o":"m 200 0 l 217 0 l 217 903 l 200 903 z m 68 1057 b 97 1028 68 1040 81 1028 b 126 1057 114 1028 126 1040 b 97 1086 126 1074 114 1086 b 68 1057 81 1086 68 1074 z m 290 1057 b 319 1028 290 1040 303 1028 b 349 1057 336 1028 349 1040 b 319 1086 349 1074 336 1086 b 290 1057 303 1086 290 1074 z "},"İ":{"ha":417,"x_min":0,"x_max":0,"o":"m 200 0 l 217 0 l 217 903 l 200 903 z m 179 1057 b 208 1028 179 1040 192 1028 b 238 1057 225 1028 238 1040 b 208 1086 238 1074 225 1086 b 179 1057 192 1086 179 1074 z "},"Ì":{"ha":417,"x_min":0,"x_max":0,"o":"m 200 0 l 217 0 l 217 903 l 200 903 z m 118 1111 l 196 972 l 215 972 l 138 1111 z "},"Ī":{"ha":417,"x_min":0,"x_max":0,"o":"m 200 0 l 217 0 l 217 903 l 200 903 z m 21 1047 l 396 1047 l 396 1064 l 21 1064 z "},"Į":{"ha":417,"x_min":0,"x_max":0,"o":"m 68 -278 l 351 -278 l 351 -261 l 94 -261 l 217 0 l 217 903 l 200 903 l 200 3 z "},"Ĩ":{"ha":417,"x_min":0,"x_max":0,"o":"m 200 0 l 217 0 l 217 903 l 200 903 z m 11 972 l 28 972 b 106 1100 28 1051 60 1100 b 319 968 181 1100 239 968 b 413 1110 368 968 413 1015 l 396 1110 b 318 985 396 1026 358 985 b 106 1117 246 985 194 1117 b 11 972 51 1117 11 1064 z "},"J":{"ha":675,"x_min":0,"x_max":0,"o":"m 303 -14 b 508 208 415 -14 508 75 l 508 903 l 492 903 l 492 208 b 303 3 492 83 407 3 b 114 208 199 3 114 83 l 114 383 l 97 383 l 97 208 b 303 -14 97 75 190 -14 z "},"K":{"ha":819,"x_min":0,"x_max":0,"o":"m 183 425 l 522 425 l 735 0 l 750 0 l 533 442 l 725 903 l 707 903 l 515 442 l 183 442 l 183 903 l 167 903 l 167 0 l 183 0 z "},"Ķ":{"ha":819,"x_min":0,"x_max":0,"o":"m 183 425 l 522 425 l 735 0 l 750 0 l 533 442 l 725 903 l 707 903 l 515 442 l 183 442 l 183 903 l 167 903 l 167 0 l 183 0 z m 318 -278 l 336 -278 l 436 -64 l 418 -64 z "},"L":{"ha":743,"x_min":0,"x_max":0,"o":"m 167 0 l 674 0 l 674 17 l 183 17 l 183 903 l 167 903 z "},"Ĺ":{"ha":743,"x_min":0,"x_max":0,"o":"m 167 0 l 674 0 l 674 17 l 183 17 l 183 903 l 167 903 z m 168 972 l 188 972 l 265 1111 l 246 1111 z "},"Ľ":{"ha":743,"x_min":0,"x_max":0,"o":"m 167 0 l 674 0 l 674 17 l 183 17 l 183 903 l 167 903 z m 1 1110 l 163 972 l 188 972 l 349 1110 l 324 1110 l 175 983 l 26 1110 z "},"Ļ":{"ha":743,"x_min":0,"x_max":0,"o":"m 167 0 l 674 0 l 674 17 l 183 17 l 183 903 l 167 903 z m 283 -278 l 301 -278 l 401 -64 l 383 -64 z "},"Ŀ":{"ha":743,"x_min":0,"x_max":0,"o":"m 167 0 l 674 0 l 674 17 l 183 17 l 183 903 l 167 903 z m 521 458 b 590 389 521 421 553 389 b 660 458 629 389 660 421 b 590 528 660 497 629 528 b 521 458 553 528 521 497 z "},"Ł":{"ha":743,"x_min":0,"x_max":0,"o":"m 69 311 l 167 385 l 167 0 l 674 0 l 674 17 l 183 17 l 183 397 l 451 601 l 451 622 l 183 419 l 183 903 l 167 903 l 167 407 l 69 333 z "},"M":{"ha":1161,"x_min":0,"x_max":0,"o":"m 525 432 l 636 432 l 892 886 l 978 886 l 978 0 l 994 0 l 994 903 l 882 903 l 626 449 l 535 449 l 279 903 l 167 903 l 167 0 l 183 0 l 183 886 l 269 886 z "},"N":{"ha":882,"x_min":0,"x_max":0,"o":"m 604 432 l 699 432 l 699 0 l 715 0 l 715 903 l 699 903 l 699 449 l 613 449 l 278 903 l 167 903 l 167 0 l 183 0 l 183 886 l 269 886 z "},"Ń":{"ha":882,"x_min":0,"x_max":0,"o":"m 604 432 l 699 432 l 699 0 l 715 0 l 715 903 l 699 903 l 699 449 l 613 449 l 278 903 l 167 903 l 167 0 l 183 0 l 183 886 l 269 886 z m 435 974 l 454 974 l 532 1113 l 513 1113 z "},"Ň":{"ha":882,"x_min":0,"x_max":0,"o":"m 604 432 l 699 432 l 699 0 l 715 0 l 715 903 l 699 903 l 699 449 l 613 449 l 278 903 l 167 903 l 167 0 l 183 0 l 183 886 l 269 886 z m 268 1111 l 429 974 l 454 974 l 615 1111 l 590 1111 l 442 985 l 293 1111 z "},"Ņ":{"ha":882,"x_min":0,"x_max":0,"o":"m 604 432 l 699 432 l 699 0 l 715 0 l 715 903 l 699 903 l 699 449 l 613 449 l 278 903 l 167 903 l 167 0 l 183 0 l 183 886 l 269 886 z m 332 -278 l 350 -278 l 450 -64 l 432 -64 z "},"Ñ":{"ha":882,"x_min":0,"x_max":0,"o":"m 604 432 l 699 432 l 699 0 l 715 0 l 715 903 l 699 903 l 699 449 l 613 449 l 278 903 l 167 903 l 167 0 l 183 0 l 183 886 l 269 886 z m 244 974 l 261 974 b 339 1101 261 1053 293 1101 b 553 969 414 1101 472 969 b 646 1111 601 969 646 1017 l 629 1111 b 551 986 629 1028 592 986 b 339 1118 479 986 428 1118 b 244 974 285 1118 244 1065 z "},"Ŋ":{"ha":882,"x_min":0,"x_max":0,"o":"m 604 431 l 699 431 l 699 -261 l 499 -261 l 499 -278 l 715 -278 l 715 901 l 699 901 l 699 447 l 613 447 l 278 901 l 183 901 l 183 903 l 167 903 l 167 0 l 183 0 l 183 885 l 269 885 z "},"O":{"ha":1167,"x_min":0,"x_max":0,"o":"m 583 -22 b 1056 450 844 -22 1056 189 b 583 922 1056 711 844 922 b 111 450 322 922 111 711 b 583 -22 111 189 322 -22 z m 128 450 b 583 906 128 703 331 906 b 1039 450 836 906 1039 703 b 583 -6 1039 197 832 -6 b 128 450 331 -6 128 197 z "},"Ó":{"ha":1167,"x_min":0,"x_max":0,"o":"m 583 -22 b 1056 450 844 -22 1056 189 b 583 922 1056 711 844 922 b 111 450 322 922 111 711 b 583 -22 111 189 322 -22 z m 128 450 b 583 906 128 703 331 906 b 1039 450 836 906 1039 703 b 583 -6 1039 197 832 -6 b 128 450 331 -6 128 197 z m 576 971 l 596 971 l 674 1110 l 654 1110 z "},"Ô":{"ha":1167,"x_min":0,"x_max":0,"o":"m 583 -22 b 1056 450 844 -22 1056 189 b 583 922 1056 711 844 922 b 111 450 322 922 111 711 b 583 -22 111 189 322 -22 z m 128 450 b 583 906 128 703 331 906 b 1039 450 836 906 1039 703 b 583 -6 1039 197 832 -6 b 128 450 331 -6 128 197 z m 410 972 l 435 972 l 583 1099 l 732 972 l 757 972 l 596 1110 l 571 1110 z "},"Ö":{"ha":1167,"x_min":0,"x_max":0,"o":"m 583 -22 b 1056 450 844 -22 1056 189 b 583 922 1056 711 844 922 b 111 450 322 922 111 711 b 583 -22 111 189 322 -22 z m 128 450 b 583 906 128 703 331 906 b 1039 450 836 906 1039 703 b 583 -6 1039 197 832 -6 b 128 450 331 -6 128 197 z m 443 1056 b 472 1026 443 1039 456 1026 b 501 1056 489 1026 501 1039 b 472 1085 501 1072 489 1085 b 443 1056 456 1085 443 1072 z m 665 1056 b 694 1026 665 1039 678 1026 b 724 1056 711 1026 724 1039 b 694 1085 724 1072 711 1085 b 665 1056 678 1085 665 1072 z "},"Ò":{"ha":1167,"x_min":0,"x_max":0,"o":"m 583 -22 b 1056 450 844 -22 1056 189 b 583 922 1056 711 844 922 b 111 450 322 922 111 711 b 583 -22 111 189 322 -22 z m 128 450 b 583 906 128 703 331 906 b 1039 450 836 906 1039 703 b 583 -6 1039 197 832 -6 b 128 450 331 -6 128 197 z m 493 1110 l 571 971 l 590 971 l 513 1110 z "},"Ő":{"ha":1167,"x_min":0,"x_max":0,"o":"m 583 -22 b 1056 450 844 -22 1056 189 b 583 922 1056 711 844 922 b 111 450 322 922 111 711 b 583 -22 111 189 322 -22 z m 128 450 b 583 906 128 703 331 906 b 1039 450 836 906 1039 703 b 583 -6 1039 197 832 -6 b 128 450 331 -6 128 197 z m 451 971 l 469 971 l 547 1221 l 529 1221 z m 703 971 l 721 971 l 799 1221 l 781 1221 z "},"Ō":{"ha":1167,"x_min":0,"x_max":0,"o":"m 583 -22 b 1056 450 844 -22 1056 189 b 583 922 1056 711 844 922 b 111 450 322 922 111 711 b 583 -22 111 189 322 -22 z m 128 450 b 583 906 128 703 331 906 b 1039 450 836 906 1039 703 b 583 -6 1039 197 832 -6 b 128 450 331 -6 128 197 z m 354 1044 l 813 1044 l 813 1061 l 354 1061 z "},"Ø":{"ha":1194,"x_min":0,"x_max":0,"o":"m 196 0 l 218 0 l 293 86 b 597 -22 375 18 481 -22 b 1069 450 861 -22 1069 186 b 913 804 1069 592 1010 718 l 997 901 l 975 901 l 900 814 b 597 922 818 882 713 922 b 125 450 333 922 125 714 b 281 97 125 308 185 183 z m 142 450 b 597 906 142 706 342 906 b 889 803 710 906 811 867 l 290 110 b 142 450 199 193 142 314 z m 304 99 l 901 792 b 1053 450 994 708 1053 588 b 597 -6 1053 194 853 -6 b 304 99 485 -6 382 33 z "},"Õ":{"ha":1167,"x_min":0,"x_max":0,"o":"m 583 -22 b 1056 450 844 -22 1056 189 b 583 922 1056 711 844 922 b 111 450 322 922 111 711 b 583 -22 111 189 322 -22 z m 128 450 b 583 906 128 703 331 906 b 1039 450 836 906 1039 703 b 583 -6 1039 197 832 -6 b 128 450 331 -6 128 197 z m 386 971 l 403 971 b 481 1099 403 1050 435 1099 b 694 967 556 1099 614 967 b 788 1108 743 967 788 1014 l 771 1108 b 693 983 771 1025 733 983 b 481 1115 621 983 569 1115 b 386 971 426 1115 386 1063 z "},"Œ":{"ha":1146,"x_min":0,"x_max":0,"o":"m 651 886 l 651 17 l 549 17 b 128 451 296 17 128 190 b 549 886 128 715 297 886 z m 111 451 b 549 0 111 181 286 0 l 1007 0 l 1007 17 l 668 17 l 668 442 l 938 442 l 938 458 l 668 458 l 668 886 l 1007 886 l 1007 903 l 549 903 b 111 451 286 903 111 721 z "},"P":{"ha":840,"x_min":0,"x_max":0,"o":"m 167 903 l 167 0 l 183 0 l 183 297 l 444 297 b 743 600 624 297 743 418 b 444 903 743 782 624 903 z m 183 314 l 183 886 l 444 886 b 726 600 615 886 726 774 b 444 314 726 426 615 314 z "},"Þ":{"ha":833,"x_min":0,"x_max":0,"o":"m 167 974 l 167 0 l 183 0 l 183 157 l 444 157 b 743 460 624 157 743 278 b 444 763 743 642 624 763 l 183 763 l 183 974 z m 183 174 l 183 746 l 438 746 b 726 460 615 746 726 636 b 438 174 726 283 615 174 z "},"Q":{"ha":1215,"x_min":0,"x_max":0,"o":"m 989 0 l 1010 0 l 907 106 b 1056 450 999 192 1056 314 b 583 922 1056 711 844 922 b 111 450 322 922 111 711 b 583 -22 111 189 322 -22 b 896 96 703 -22 813 22 z m 128 450 b 583 906 128 703 331 906 b 1039 450 836 906 1039 703 b 894 118 1039 319 983 201 l 715 304 l 704 292 l 883 108 b 583 -6 803 38 697 -6 b 128 450 331 -6 128 197 z "},"R":{"ha":857,"x_min":0,"x_max":0,"o":"m 633 0 l 651 0 l 501 304 b 732 600 642 331 732 442 b 433 903 732 782 613 903 l 167 903 l 167 0 l 183 0 l 183 297 l 433 297 b 485 301 451 297 468 299 z m 183 314 l 183 886 l 433 886 b 715 600 604 886 715 774 b 433 314 715 426 604 314 z "},"Ŕ":{"ha":857,"x_min":0,"x_max":0,"o":"m 633 0 l 651 0 l 501 304 b 732 600 642 331 732 442 b 433 903 732 782 613 903 l 167 903 l 167 0 l 183 0 l 183 297 l 433 297 b 485 301 451 297 468 299 z m 183 314 l 183 886 l 433 886 b 715 600 604 886 715 774 b 433 314 715 426 604 314 z m 394 972 l 414 972 l 492 1111 l 472 1111 z "},"Ř":{"ha":857,"x_min":0,"x_max":0,"o":"m 633 0 l 651 0 l 501 304 b 732 600 642 331 732 442 b 433 903 732 782 613 903 l 167 903 l 167 0 l 183 0 l 183 297 l 433 297 b 485 301 451 297 468 299 z m 183 314 l 183 886 l 433 886 b 715 600 604 886 715 774 b 433 314 715 426 604 314 z m 228 1110 l 389 972 l 414 972 l 575 1110 l 550 1110 l 401 983 l 253 1110 z "},"Ŗ":{"ha":857,"x_min":0,"x_max":0,"o":"m 633 0 l 651 0 l 501 304 b 732 600 642 331 732 442 b 433 903 732 782 613 903 l 167 903 l 167 0 l 183 0 l 183 297 l 433 297 b 485 301 451 297 468 299 z m 183 314 l 183 886 l 433 886 b 715 600 604 886 715 774 b 433 314 715 426 604 314 z m 333 -278 l 351 -278 l 451 -64 l 433 -64 z "},"S":{"ha":778,"x_min":0,"x_max":0,"o":"m 189 0 l 368 0 b 667 268 565 0 667 135 b 368 531 667 400 568 531 l 358 531 l 358 514 l 368 514 b 650 267 557 514 650 390 b 368 17 650 142 556 17 l 189 17 z m 111 635 b 410 372 111 503 211 372 l 419 372 l 419 389 l 410 389 b 128 636 222 389 128 513 b 410 886 128 761 222 886 l 546 886 l 546 903 l 410 903 b 111 635 211 903 111 768 z "},"Ś":{"ha":778,"x_min":0,"x_max":0,"o":"m 189 0 l 368 0 b 667 268 565 0 667 135 b 368 531 667 400 568 531 l 358 531 l 358 514 l 368 514 b 650 267 557 514 650 390 b 368 17 650 142 556 17 l 189 17 z m 111 635 b 410 372 111 503 211 372 l 419 372 l 419 389 l 410 389 b 128 636 222 389 128 513 b 410 886 128 761 222 886 l 546 886 l 546 903 l 410 903 b 111 635 211 903 111 768 z m 382 974 l 401 974 l 479 1113 l 460 1113 z "},"Š":{"ha":778,"x_min":0,"x_max":0,"o":"m 189 0 l 368 0 b 667 268 565 0 667 135 b 368 531 667 400 568 531 l 358 531 l 358 514 l 368 514 b 650 267 557 514 650 390 b 368 17 650 142 556 17 l 189 17 z m 111 635 b 410 372 111 503 211 372 l 419 372 l 419 389 l 410 389 b 128 636 222 389 128 513 b 410 886 128 761 222 886 l 546 886 l 546 903 l 410 903 b 111 635 211 903 111 768 z m 215 1111 l 376 974 l 401 974 l 563 1111 l 538 1111 l 389 985 l 240 1111 z "},"Ş":{"ha":778,"x_min":0,"x_max":0,"o":"m 189 0 l 368 0 b 667 268 565 0 667 135 b 368 531 667 400 568 531 l 358 531 l 358 514 l 368 514 b 650 267 557 514 650 390 b 368 17 650 142 556 17 l 189 17 z m 111 635 b 410 372 111 503 211 372 l 419 372 l 419 389 l 410 389 b 128 636 222 389 128 513 b 410 886 128 761 222 886 l 546 886 l 546 903 l 410 903 b 111 635 211 903 111 768 z m 360 -318 b 500 -181 444 -318 500 -262 b 360 -43 500 -99 444 -43 l 360 -60 b 483 -181 435 -60 483 -107 b 360 -301 483 -254 435 -301 z "},"Ș":{"ha":778,"x_min":0,"x_max":0,"o":"m 189 0 l 368 0 b 667 268 565 0 667 135 b 368 531 667 400 568 531 l 358 531 l 358 514 l 368 514 b 650 267 557 514 650 390 b 368 17 650 142 556 17 l 189 17 z m 111 635 b 410 372 111 503 211 372 l 419 372 l 419 389 l 410 389 b 128 636 222 389 128 513 b 410 886 128 761 222 886 l 546 886 l 546 903 l 410 903 b 111 635 211 903 111 768 z m 279 -278 l 297 -278 l 397 -64 l 379 -64 z "},"ẞ":{"ha":854,"x_min":0,"x_max":0,"o":"m 381 886 l 601 886 l 476 589 l 489 589 b 768 303 649 583 768 467 b 485 17 768 143 643 17 l 403 17 l 403 0 l 485 0 b 785 303 653 0 785 133 b 501 606 785 465 665 596 l 626 903 l 381 903 b 167 660 250 903 167 807 l 167 0 l 183 0 l 183 660 b 381 886 183 799 263 889 z "},"T":{"ha":743,"x_min":0,"x_max":0,"o":"m 69 886 l 364 886 l 364 0 l 381 0 l 381 886 l 674 886 l 674 903 l 69 903 z "},"Ŧ":{"ha":743,"x_min":0,"x_max":0,"o":"m 157 392 l 157 375 l 364 375 l 364 0 l 381 0 l 381 375 l 588 375 l 588 392 l 381 392 l 381 886 l 674 886 l 674 903 l 69 903 l 69 886 l 364 886 l 364 392 z "},"Ť":{"ha":743,"x_min":0,"x_max":0,"o":"m 69 886 l 364 886 l 364 0 l 381 0 l 381 886 l 674 886 l 674 903 l 69 903 z m 199 1111 l 360 974 l 385 974 l 546 1111 l 521 1111 l 372 985 l 224 1111 z "},"Ţ":{"ha":743,"x_min":0,"x_max":0,"o":"m 69 886 l 364 886 l 364 0 l 381 0 l 381 886 l 674 886 l 674 903 l 69 903 z m 343 -318 b 483 -181 428 -318 483 -262 b 343 -43 483 -99 428 -43 l 343 -60 b 467 -181 418 -60 467 -107 b 343 -301 467 -254 418 -301 z "},"Ț":{"ha":743,"x_min":0,"x_max":0,"o":"m 69 886 l 364 886 l 364 0 l 381 0 l 381 886 l 674 886 l 674 903 l 69 903 z m 263 -278 l 281 -278 l 381 -64 l 363 -64 z "},"U":{"ha":958,"x_min":0,"x_max":0,"o":"m 479 3 b 183 285 299 3 183 113 l 183 903 l 167 903 l 167 285 b 479 -14 167 89 303 -14 b 792 285 656 -14 792 89 l 792 903 l 775 903 l 775 285 b 479 3 775 113 660 3 z "},"Ú":{"ha":958,"x_min":0,"x_max":0,"o":"m 479 3 b 183 285 299 3 183 113 l 183 903 l 167 903 l 167 285 b 479 -14 167 89 303 -14 b 792 285 656 -14 792 89 l 792 903 l 775 903 l 775 285 b 479 3 775 113 660 3 z m 472 972 l 492 972 l 569 1111 l 550 1111 z "},"Û":{"ha":958,"x_min":0,"x_max":0,"o":"m 479 3 b 183 285 299 3 183 113 l 183 903 l 167 903 l 167 285 b 479 -14 167 89 303 -14 b 792 285 656 -14 792 89 l 792 903 l 775 903 l 775 285 b 479 3 775 113 660 3 z m 306 974 l 331 974 l 479 1100 l 628 974 l 653 974 l 492 1111 l 467 1111 z "},"Ü":{"ha":958,"x_min":0,"x_max":0,"o":"m 479 3 b 183 285 299 3 183 113 l 183 903 l 167 903 l 167 285 b 479 -14 167 89 303 -14 b 792 285 656 -14 792 89 l 792 903 l 775 903 l 775 285 b 479 3 775 113 660 3 z m 339 1057 b 368 1028 339 1040 351 1028 b 397 1057 385 1028 397 1040 b 368 1086 397 1074 385 1086 b 339 1057 351 1086 339 1074 z m 561 1057 b 590 1028 561 1040 574 1028 b 619 1057 607 1028 619 1040 b 590 1086 619 1074 607 1086 b 561 1057 574 1086 561 1074 z "},"Ù":{"ha":958,"x_min":0,"x_max":0,"o":"m 479 3 b 183 285 299 3 183 113 l 183 903 l 167 903 l 167 285 b 479 -14 167 89 303 -14 b 792 285 656 -14 792 89 l 792 903 l 775 903 l 775 285 b 479 3 775 113 660 3 z m 389 1111 l 467 972 l 486 972 l 408 1111 z "},"Ű":{"ha":958,"x_min":0,"x_max":0,"o":"m 479 3 b 183 285 299 3 183 113 l 183 903 l 167 903 l 167 285 b 479 -14 167 89 303 -14 b 792 285 656 -14 792 89 l 792 903 l 775 903 l 775 285 b 479 3 775 113 660 3 z m 347 972 l 365 972 l 443 1222 l 425 1222 z m 599 972 l 617 972 l 694 1222 l 676 1222 z "},"Ū":{"ha":958,"x_min":0,"x_max":0,"o":"m 479 3 b 183 285 299 3 183 113 l 183 903 l 167 903 l 167 285 b 479 -14 167 89 303 -14 b 792 285 656 -14 792 89 l 792 903 l 775 903 l 775 285 b 479 3 775 113 660 3 z m 250 1046 l 708 1046 l 708 1063 l 250 1063 z "},"Ų":{"ha":958,"x_min":0,"x_max":0,"o":"m 479 3 b 183 285 299 3 183 113 l 183 903 l 167 903 l 167 285 b 479 -14 167 89 303 -14 b 539 -10 500 -14 519 -12 l 413 -278 l 696 -278 l 696 -261 l 439 -261 l 558 -7 b 792 285 694 21 792 119 l 792 903 l 775 903 l 775 285 b 479 3 775 113 660 3 z "},"Ů":{"ha":958,"x_min":0,"x_max":0,"o":"m 479 3 b 183 285 299 3 183 113 l 183 903 l 167 903 l 167 285 b 479 -14 167 89 303 -14 b 792 285 656 -14 792 89 l 792 903 l 775 903 l 775 285 b 479 3 775 113 660 3 z m 375 1074 b 479 969 375 1015 419 969 b 583 1074 536 969 583 1015 b 479 1178 583 1132 536 1178 b 375 1074 419 1178 375 1132 z m 390 1074 b 479 1163 392 1124 431 1163 b 567 1074 529 1163 568 1124 b 479 985 568 1024 529 985 b 390 1074 431 985 392 1024 z "},"Ũ":{"ha":958,"x_min":0,"x_max":0,"o":"m 479 3 b 183 285 299 3 183 113 l 183 903 l 167 903 l 167 285 b 479 -14 167 89 303 -14 b 792 285 656 -14 792 89 l 792 903 l 775 903 l 775 285 b 479 3 775 113 660 3 z m 282 972 l 299 972 b 376 1100 299 1051 331 1100 b 590 968 451 1100 510 968 b 683 1110 639 968 683 1015 l 667 1110 b 589 985 667 1026 629 985 b 376 1117 517 985 465 1117 b 282 972 322 1117 282 1064 z "},"V":{"ha":889,"x_min":0,"x_max":0,"o":"m 819 903 l 801 903 l 489 17 l 401 17 l 88 903 l 69 903 l 389 0 l 500 0 z "},"W":{"ha":1222,"x_min":0,"x_max":0,"o":"m 389 0 l 500 0 l 611 342 l 721 0 l 833 0 l 1153 903 l 1135 903 l 822 17 l 733 17 l 619 369 l 792 903 l 774 903 l 611 396 l 447 903 l 429 903 l 601 368 l 489 17 l 400 17 l 86 903 l 69 903 z "},"Ẃ":{"ha":1222,"x_min":0,"x_max":0,"o":"m 389 0 l 500 0 l 611 342 l 721 0 l 833 0 l 1153 903 l 1135 903 l 822 17 l 733 17 l 619 369 l 792 903 l 774 903 l 611 396 l 447 903 l 429 903 l 601 368 l 489 17 l 400 17 l 86 903 l 69 903 z m 604 974 l 624 974 l 701 1113 l 682 1113 z "},"Ŵ":{"ha":1222,"x_min":0,"x_max":0,"o":"m 389 0 l 500 0 l 611 342 l 721 0 l 833 0 l 1153 903 l 1135 903 l 822 17 l 733 17 l 619 369 l 792 903 l 774 903 l 611 396 l 447 903 l 429 903 l 601 368 l 489 17 l 400 17 l 86 903 l 69 903 z m 438 975 l 463 975 l 611 1101 l 760 975 l 785 975 l 624 1113 l 599 1113 z "},"Ẅ":{"ha":1222,"x_min":0,"x_max":0,"o":"m 389 0 l 500 0 l 611 342 l 721 0 l 833 0 l 1153 903 l 1135 903 l 822 17 l 733 17 l 619 369 l 792 903 l 774 903 l 611 396 l 447 903 l 429 903 l 601 368 l 489 17 l 400 17 l 86 903 l 69 903 z m 471 1058 b 500 1029 471 1042 483 1029 b 529 1058 517 1029 529 1042 b 500 1088 529 1075 517 1088 b 471 1058 483 1088 471 1075 z m 693 1058 b 722 1029 693 1042 706 1029 b 751 1058 739 1029 751 1042 b 722 1088 751 1075 739 1088 b 693 1058 706 1088 693 1075 z "},"Ẁ":{"ha":1222,"x_min":0,"x_max":0,"o":"m 389 0 l 500 0 l 611 342 l 721 0 l 833 0 l 1153 903 l 1135 903 l 822 17 l 733 17 l 619 369 l 792 903 l 774 903 l 611 396 l 447 903 l 429 903 l 601 368 l 489 17 l 400 17 l 86 903 l 69 903 z m 521 1113 l 599 974 l 618 974 l 540 1113 z "},"X":{"ha":747,"x_min":0,"x_max":0,"o":"m 383 451 l 678 903 l 658 903 l 374 467 l 89 903 l 69 903 l 364 451 l 69 0 l 89 0 l 374 436 l 658 0 l 678 0 z "},"Y":{"ha":718,"x_min":0,"x_max":0,"o":"m 351 0 l 368 0 l 368 397 l 415 397 l 663 903 l 644 903 l 404 414 l 314 414 l 74 903 l 56 903 l 303 397 l 351 397 z "},"Ý":{"ha":718,"x_min":0,"x_max":0,"o":"m 351 0 l 368 0 l 368 397 l 415 397 l 663 903 l 644 903 l 404 414 l 314 414 l 74 903 l 56 903 l 303 397 l 351 397 z m 353 974 l 372 974 l 450 1113 l 431 1113 z "},"Ŷ":{"ha":718,"x_min":0,"x_max":0,"o":"m 351 0 l 368 0 l 368 397 l 415 397 l 663 903 l 644 903 l 404 414 l 314 414 l 74 903 l 56 903 l 303 397 l 351 397 z m 186 975 l 211 975 l 360 1101 l 508 975 l 533 975 l 372 1113 l 347 1113 z "},"Ÿ":{"ha":718,"x_min":0,"x_max":0,"o":"m 351 0 l 368 0 l 368 397 l 415 397 l 663 903 l 644 903 l 404 414 l 314 414 l 74 903 l 56 903 l 303 397 l 351 397 z m 219 1058 b 249 1029 219 1042 232 1029 b 278 1058 265 1029 278 1042 b 249 1088 278 1075 265 1088 b 219 1058 232 1088 219 1075 z m 442 1058 b 471 1029 442 1042 454 1029 b 500 1058 488 1029 500 1042 b 471 1088 500 1075 488 1088 b 442 1058 454 1088 442 1075 z "},"Ỳ":{"ha":718,"x_min":0,"x_max":0,"o":"m 351 0 l 368 0 l 368 397 l 415 397 l 663 903 l 644 903 l 404 414 l 314 414 l 74 903 l 56 903 l 303 397 l 351 397 z m 269 1113 l 347 974 l 367 974 l 289 1113 z "},"Ỹ":{"ha":718,"x_min":0,"x_max":0,"o":"m 351 0 l 368 0 l 368 397 l 415 397 l 663 903 l 644 903 l 404 414 l 314 414 l 74 903 l 56 903 l 303 397 l 351 397 z m 163 974 l 179 974 b 257 1101 179 1053 211 1101 b 471 969 332 1101 390 969 b 564 1111 519 969 564 1017 l 547 1111 b 469 986 547 1028 510 986 b 257 1118 397 986 346 1118 b 163 974 203 1118 163 1065 z "},"Z":{"ha":756,"x_min":0,"x_max":0,"o":"m 83 0 l 672 0 l 672 17 l 113 17 l 658 903 l 97 903 l 97 886 l 629 886 z "},"Ź":{"ha":756,"x_min":0,"x_max":0,"o":"m 83 0 l 672 0 l 672 17 l 113 17 l 658 903 l 97 903 l 97 886 l 629 886 z m 371 974 l 390 974 l 468 1113 l 449 1113 z "},"Ž":{"ha":756,"x_min":0,"x_max":0,"o":"m 83 0 l 672 0 l 672 17 l 113 17 l 658 903 l 97 903 l 97 886 l 629 886 z m 204 1111 l 365 974 l 390 974 l 551 1111 l 526 1111 l 378 985 l 229 1111 z "},"Ż":{"ha":756,"x_min":0,"x_max":0,"o":"m 83 0 l 672 0 l 672 17 l 113 17 l 658 903 l 97 903 l 97 886 l 629 886 z m 349 1058 b 378 1029 349 1042 361 1029 b 407 1058 394 1029 407 1042 b 378 1088 407 1075 394 1088 b 349 1058 361 1088 349 1075 z "},"a":{"ha":750,"x_min":0,"x_max":0,"o":"m 622 361 l 622 17 l 128 17 l 128 428 l 447 428 l 447 444 l 111 444 l 111 0 l 639 0 l 639 361 b 332 722 638 593 510 722 l 111 722 l 111 706 l 332 706 b 622 361 506 706 622 576 z "},"á":{"ha":750,"x_min":0,"x_max":0,"o":"m 622 361 l 622 17 l 128 17 l 128 428 l 447 428 l 447 444 l 111 444 l 111 0 l 639 0 l 639 361 b 332 722 638 593 510 722 l 111 722 l 111 706 l 332 706 b 622 361 506 706 622 576 z m 325 793 l 344 793 l 422 932 l 403 932 z "},"ă":{"ha":750,"x_min":0,"x_max":0,"o":"m 622 361 l 622 17 l 128 17 l 128 428 l 447 428 l 447 444 l 111 444 l 111 0 l 639 0 l 639 361 b 332 722 638 593 510 722 l 111 722 l 111 706 l 332 706 b 622 361 506 706 622 576 z m 194 931 b 332 790 194 846 250 790 b 469 931 414 790 469 846 l 453 931 b 332 807 453 856 406 807 b 211 931 258 807 211 856 z "},"â":{"ha":750,"x_min":0,"x_max":0,"o":"m 622 361 l 622 17 l 128 17 l 128 428 l 447 428 l 447 444 l 111 444 l 111 0 l 639 0 l 639 361 b 332 722 638 593 510 722 l 111 722 l 111 706 l 332 706 b 622 361 506 706 622 576 z m 158 794 l 183 794 l 332 921 l 481 794 l 506 794 l 344 932 l 319 932 z "},"ä":{"ha":750,"x_min":0,"x_max":0,"o":"m 622 361 l 622 17 l 128 17 l 128 428 l 447 428 l 447 444 l 111 444 l 111 0 l 639 0 l 639 361 b 332 722 638 593 510 722 l 111 722 l 111 706 l 332 706 b 622 361 506 706 622 576 z m 192 878 b 221 849 192 861 204 849 b 250 878 238 849 250 861 b 221 907 250 894 238 907 b 192 878 204 907 192 894 z m 414 878 b 443 849 414 861 426 849 b 472 878 460 849 472 861 b 443 907 472 894 460 907 b 414 878 426 907 414 894 z "},"à":{"ha":750,"x_min":0,"x_max":0,"o":"m 622 361 l 622 17 l 128 17 l 128 428 l 447 428 l 447 444 l 111 444 l 111 0 l 639 0 l 639 361 b 332 722 638 593 510 722 l 111 722 l 111 706 l 332 706 b 622 361 506 706 622 576 z m 242 932 l 319 793 l 339 793 l 261 932 z "},"ā":{"ha":750,"x_min":0,"x_max":0,"o":"m 622 361 l 622 17 l 128 17 l 128 428 l 447 428 l 447 444 l 111 444 l 111 0 l 639 0 l 639 361 b 332 722 638 593 510 722 l 111 722 l 111 706 l 332 706 b 622 361 506 706 622 576 z m 103 867 l 561 867 l 561 883 l 103 883 z "},"ą":{"ha":750,"x_min":0,"x_max":0,"o":"m 622 361 l 622 17 l 128 17 l 128 428 l 447 428 l 447 444 l 111 444 l 111 0 l 621 0 l 490 -278 l 774 -278 l 774 -261 l 517 -261 l 639 0 l 639 361 b 332 722 638 593 510 722 l 111 722 l 111 706 l 332 706 b 622 361 506 706 622 576 z "},"å":{"ha":750,"x_min":0,"x_max":0,"o":"m 622 361 l 622 17 l 128 17 l 128 428 l 447 428 l 447 444 l 111 444 l 111 0 l 639 0 l 639 361 b 332 722 638 593 510 722 l 111 722 l 111 706 l 332 706 b 622 361 506 706 622 576 z m 228 894 b 332 790 228 836 272 790 b 436 894 389 790 436 836 b 332 999 436 953 389 999 b 228 894 272 999 228 953 z m 243 894 b 332 983 244 944 283 983 b 419 894 382 983 421 944 b 332 806 421 844 382 806 b 243 894 283 806 244 844 z "},"ã":{"ha":750,"x_min":0,"x_max":0,"o":"m 622 361 l 622 17 l 128 17 l 128 428 l 447 428 l 447 444 l 111 444 l 111 0 l 639 0 l 639 361 b 332 722 638 593 510 722 l 111 722 l 111 706 l 332 706 b 622 361 506 706 622 576 z m 135 793 l 151 793 b 229 921 151 872 183 921 b 443 789 304 921 363 789 b 536 931 492 789 536 836 l 519 931 b 442 806 519 847 482 806 b 229 938 369 806 318 938 b 135 793 175 938 135 885 z "},"æ":{"ha":1097,"x_min":0,"x_max":0,"o":"m 539 361 b 249 17 539 146 422 17 l 128 17 l 128 428 l 365 428 l 365 444 l 111 444 l 111 0 l 249 0 b 547 267 400 0 517 94 b 846 0 578 94 694 0 l 924 0 l 924 17 l 846 17 b 556 361 672 17 556 146 b 846 706 556 576 672 706 l 969 706 l 969 294 l 731 294 l 731 278 l 986 278 l 986 722 l 846 722 b 547 456 694 722 578 628 b 249 722 517 628 400 722 l 111 722 l 111 706 l 249 706 b 539 361 422 706 539 576 z "},"b":{"ha":778,"x_min":0,"x_max":0,"o":"m 388 17 l 142 17 l 142 706 l 388 706 b 678 361 561 706 678 576 b 388 17 678 146 561 17 z m 125 0 l 388 0 b 694 361 565 0 693 129 b 388 722 693 593 565 722 l 142 722 l 142 1000 l 125 1000 z "},"c":{"ha":611,"x_min":0,"x_max":0,"o":"m 528 17 l 390 17 b 100 361 217 17 100 146 b 390 706 100 576 217 706 l 528 706 l 528 722 l 390 722 b 83 361 213 722 85 593 b 390 0 85 129 213 0 l 528 0 z "},"ć":{"ha":611,"x_min":0,"x_max":0,"o":"m 528 17 l 390 17 b 100 361 217 17 100 146 b 390 706 100 576 217 706 l 528 706 l 528 722 l 390 722 b 83 361 213 722 85 593 b 390 0 85 129 213 0 l 528 0 z m 383 793 l 403 793 l 481 932 l 461 932 z "},"č":{"ha":611,"x_min":0,"x_max":0,"o":"m 528 17 l 390 17 b 100 361 217 17 100 146 b 390 706 100 576 217 706 l 528 706 l 528 722 l 390 722 b 83 361 213 722 85 593 b 390 0 85 129 213 0 l 528 0 z m 217 931 l 378 793 l 403 793 l 564 931 l 539 931 l 390 804 l 242 931 z "},"ç":{"ha":611,"x_min":0,"x_max":0,"o":"m 528 17 l 390 17 b 100 361 217 17 100 146 b 390 706 100 576 217 706 l 528 706 l 528 722 l 390 722 b 83 361 213 722 85 593 b 390 0 85 129 213 0 l 528 0 z m 361 -318 b 501 -181 446 -318 501 -262 b 361 -43 501 -99 446 -43 l 361 -60 b 485 -181 436 -60 485 -107 b 361 -301 485 -254 436 -301 z "},"ċ":{"ha":611,"x_min":0,"x_max":0,"o":"m 528 17 l 390 17 b 100 361 217 17 100 146 b 390 706 100 576 217 706 l 528 706 l 528 722 l 390 722 b 83 361 213 722 85 593 b 390 0 85 129 213 0 l 528 0 z m 361 878 b 390 849 361 861 374 849 b 419 878 407 849 419 861 b 390 907 419 894 407 907 b 361 878 374 907 361 894 z "},"d":{"ha":778,"x_min":0,"x_max":0,"o":"m 390 706 l 636 706 l 636 17 l 390 17 b 100 361 217 17 100 146 b 390 706 100 578 217 706 z m 83 361 b 390 0 85 129 213 0 l 653 0 l 653 1000 l 636 1000 l 636 722 l 390 722 b 83 361 213 722 85 593 z "},"ð":{"ha":826,"x_min":0,"x_max":0,"o":"m 656 903 l 468 903 l 376 1049 l 357 1049 l 449 903 l 128 903 l 128 886 l 458 886 l 635 603 b 413 685 575 654 497 685 b 67 339 222 685 67 529 b 413 -7 67 149 222 -7 b 758 339 603 -7 758 149 b 697 533 758 411 736 478 l 478 886 l 656 886 z m 83 339 b 413 668 83 519 232 668 b 742 339 593 668 742 519 b 413 10 742 158 593 10 b 83 339 232 10 83 158 z "},"ď":{"ha":993,"x_min":0,"x_max":0,"o":"m 390 706 l 636 706 l 636 17 l 390 17 b 100 361 217 17 100 146 b 390 706 100 578 217 706 z m 83 361 b 390 0 85 129 213 0 l 653 0 l 653 1000 l 636 1000 l 636 722 l 390 722 b 83 361 213 722 85 593 z m 844 828 l 861 828 l 861 1111 l 844 1111 z "},"đ":{"ha":785,"x_min":0,"x_max":0,"o":"m 729 863 l 653 863 l 653 1000 l 636 1000 l 636 863 l 229 863 l 229 846 l 636 846 l 636 722 l 390 722 b 83 361 213 722 85 593 b 390 0 85 129 213 0 l 653 0 l 653 846 l 729 846 z m 100 361 b 390 706 100 578 217 706 l 636 706 l 636 17 l 390 17 b 100 361 217 17 100 146 z "},"e":{"ha":743,"x_min":0,"x_max":0,"o":"m 83 361 b 390 0 85 129 213 0 l 550 0 l 550 17 l 390 17 b 100 361 217 17 100 146 b 390 706 100 576 217 706 l 615 706 l 615 294 l 275 294 l 275 278 l 632 278 l 632 722 l 390 722 b 83 361 213 722 85 593 z "},"é":{"ha":743,"x_min":0,"x_max":0,"o":"m 83 361 b 390 0 85 129 213 0 l 550 0 l 550 17 l 390 17 b 100 361 217 17 100 146 b 390 706 100 576 217 706 l 615 706 l 615 294 l 275 294 l 275 278 l 632 278 l 632 722 l 390 722 b 83 361 213 722 85 593 z m 438 793 l 457 793 l 535 932 l 515 932 z "},"ě":{"ha":743,"x_min":0,"x_max":0,"o":"m 83 361 b 390 0 85 129 213 0 l 550 0 l 550 17 l 390 17 b 100 361 217 17 100 146 b 390 706 100 576 217 706 l 615 706 l 615 294 l 275 294 l 275 278 l 632 278 l 632 722 l 390 722 b 83 361 213 722 85 593 z m 271 931 l 432 793 l 457 793 l 618 931 l 593 931 l 444 804 l 296 931 z "},"ê":{"ha":743,"x_min":0,"x_max":0,"o":"m 83 361 b 390 0 85 129 213 0 l 550 0 l 550 17 l 390 17 b 100 361 217 17 100 146 b 390 706 100 576 217 706 l 615 706 l 615 294 l 275 294 l 275 278 l 632 278 l 632 722 l 390 722 b 83 361 213 722 85 593 z m 271 794 l 296 794 l 444 921 l 593 794 l 618 794 l 457 932 l 432 932 z "},"ë":{"ha":743,"x_min":0,"x_max":0,"o":"m 83 361 b 390 0 85 129 213 0 l 550 0 l 550 17 l 390 17 b 100 361 217 17 100 146 b 390 706 100 576 217 706 l 615 706 l 615 294 l 275 294 l 275 278 l 632 278 l 632 722 l 390 722 b 83 361 213 722 85 593 z m 304 878 b 333 849 304 861 317 849 b 363 878 350 849 363 861 b 333 907 363 894 350 907 b 304 878 317 907 304 894 z m 526 878 b 556 849 526 861 539 849 b 585 878 572 849 585 861 b 556 907 585 894 572 907 b 526 878 539 907 526 894 z "},"ė":{"ha":743,"x_min":0,"x_max":0,"o":"m 83 361 b 390 0 85 129 213 0 l 550 0 l 550 17 l 390 17 b 100 361 217 17 100 146 b 390 706 100 576 217 706 l 615 706 l 615 294 l 275 294 l 275 278 l 632 278 l 632 722 l 390 722 b 83 361 213 722 85 593 z m 415 878 b 444 849 415 861 428 849 b 474 878 461 849 474 861 b 444 907 474 894 461 907 b 415 878 428 907 415 894 z "},"è":{"ha":743,"x_min":0,"x_max":0,"o":"m 83 361 b 390 0 85 129 213 0 l 550 0 l 550 17 l 390 17 b 100 361 217 17 100 146 b 390 706 100 576 217 706 l 615 706 l 615 294 l 275 294 l 275 278 l 632 278 l 632 722 l 390 722 b 83 361 213 722 85 593 z m 354 932 l 432 793 l 451 793 l 374 932 z "},"ē":{"ha":743,"x_min":0,"x_max":0,"o":"m 83 361 b 390 0 85 129 213 0 l 550 0 l 550 17 l 390 17 b 100 361 217 17 100 146 b 390 706 100 576 217 706 l 615 706 l 615 294 l 275 294 l 275 278 l 632 278 l 632 722 l 390 722 b 83 361 213 722 85 593 z m 215 867 l 674 867 l 674 883 l 215 883 z "},"ę":{"ha":743,"x_min":0,"x_max":0,"o":"m 83 361 b 390 0 85 129 213 0 l 510 0 l 379 -278 l 663 -278 l 663 -261 l 406 -261 l 528 0 l 550 0 l 550 17 l 390 17 b 100 361 217 17 100 146 b 390 706 100 576 217 706 l 615 706 l 615 294 l 275 294 l 275 278 l 632 278 l 632 722 l 390 722 b 83 361 213 722 85 593 z "},"ẽ":{"ha":743,"x_min":0,"x_max":0,"o":"m 83 361 b 390 0 85 129 213 0 l 550 0 l 550 17 l 390 17 b 100 361 217 17 100 146 b 390 706 100 576 217 706 l 615 706 l 615 294 l 275 294 l 275 278 l 632 278 l 632 722 l 390 722 b 83 361 213 722 85 593 z m 247 793 l 264 793 b 342 921 264 872 296 921 b 556 789 417 921 475 789 b 649 931 604 789 649 836 l 632 931 b 554 806 632 847 594 806 b 342 938 482 806 431 938 b 247 793 288 938 247 885 z "},"f":{"ha":528,"x_min":0,"x_max":0,"o":"m 444 969 l 444 986 l 125 986 l 125 0 l 142 0 l 142 706 l 444 706 l 444 722 l 142 722 l 142 969 z "},"g":{"ha":847,"x_min":0,"x_max":0,"o":"m 100 479 b 390 733 100 621 228 733 b 681 479 553 733 681 621 b 390 225 681 338 553 225 b 100 479 228 225 100 338 z m 83 479 b 267 228 83 375 147 271 l 267 17 l 100 17 l 100 0 l 733 0 l 733 -33 b 529 -226 733 -149 651 -226 l 239 -226 l 239 -243 l 529 -243 b 750 -33 661 -243 750 -158 l 750 17 l 283 17 l 283 222 b 390 208 315 214 351 208 b 697 479 590 208 697 343 l 697 861 l 681 861 l 681 571 b 390 750 643 669 544 750 b 83 479 190 750 83 615 z "},"ğ":{"ha":847,"x_min":0,"x_max":0,"o":"m 100 479 b 390 733 100 621 228 733 b 681 479 553 733 681 621 b 390 225 681 338 553 225 b 100 479 228 225 100 338 z m 83 479 b 267 228 83 375 147 271 l 267 17 l 100 17 l 100 0 l 733 0 l 733 -33 b 529 -226 733 -149 651 -226 l 239 -226 l 239 -243 l 529 -243 b 750 -33 661 -243 750 -158 l 750 17 l 283 17 l 283 222 b 390 208 315 214 351 208 b 697 479 590 208 697 343 l 697 861 l 681 861 l 681 571 b 390 750 643 669 544 750 b 83 479 190 750 83 615 z m 253 958 b 390 818 253 874 308 818 b 528 958 472 818 528 874 l 511 958 b 390 835 511 883 464 835 b 269 958 317 835 269 883 z "},"ģ":{"ha":847,"x_min":0,"x_max":0,"o":"m 100 479 b 390 733 100 621 228 733 b 681 479 553 733 681 621 b 390 225 681 338 553 225 b 100 479 228 225 100 338 z m 83 479 b 267 228 83 375 147 271 l 267 17 l 100 17 l 100 0 l 733 0 l 733 -33 b 529 -226 733 -149 651 -226 l 239 -226 l 239 -243 l 529 -243 b 750 -33 661 -243 750 -158 l 750 17 l 283 17 l 283 222 b 390 208 315 214 351 208 b 697 479 590 208 697 343 l 697 861 l 681 861 l 681 571 b 390 750 643 669 544 750 b 83 479 190 750 83 615 z m 382 842 l 399 842 l 399 986 l 475 1139 l 458 1139 l 382 986 z "},"ġ":{"ha":847,"x_min":0,"x_max":0,"o":"m 100 479 b 390 733 100 621 228 733 b 681 479 553 733 681 621 b 390 225 681 338 553 225 b 100 479 228 225 100 338 z m 83 479 b 267 228 83 375 147 271 l 267 17 l 100 17 l 100 0 l 733 0 l 733 -33 b 529 -226 733 -149 651 -226 l 239 -226 l 239 -243 l 529 -243 b 750 -33 661 -243 750 -158 l 750 17 l 283 17 l 283 222 b 390 208 315 214 351 208 b 697 479 590 208 697 343 l 697 861 l 681 861 l 681 571 b 390 750 643 669 544 750 b 83 479 190 750 83 615 z m 361 906 b 390 876 361 889 374 876 b 419 906 407 876 419 889 b 390 935 419 922 407 935 b 361 906 374 935 361 922 z "},"h":{"ha":750,"x_min":0,"x_max":0,"o":"m 125 986 l 125 0 l 142 0 l 142 706 l 415 706 b 608 501 531 706 608 624 l 608 0 l 625 0 l 625 501 b 415 722 625 633 540 722 l 142 722 l 142 986 z "},"ħ":{"ha":750,"x_min":0,"x_max":0,"o":"m 569 863 l 156 863 l 156 986 l 139 986 l 139 863 l 69 863 l 69 846 l 139 846 l 139 0 l 156 0 l 156 706 l 429 706 b 622 501 544 706 622 624 l 622 0 l 639 0 l 639 501 b 429 722 639 633 554 722 l 156 722 l 156 846 l 569 846 z "},"i":{"ha":410,"x_min":0,"x_max":0,"o":"m 196 0 l 213 0 l 213 722 l 196 722 z m 175 878 b 204 849 175 861 188 849 b 233 878 221 849 233 861 b 204 907 233 894 221 907 b 175 878 188 907 175 894 z "},"ı":{"ha":410,"x_min":0,"x_max":0,"o":"m 196 0 l 213 0 l 213 722 l 196 722 z "},"í":{"ha":410,"x_min":0,"x_max":0,"o":"m 196 0 l 213 0 l 213 722 l 196 722 z m 197 793 l 217 793 l 294 932 l 275 932 z "},"î":{"ha":410,"x_min":0,"x_max":0,"o":"m 196 0 l 213 0 l 213 722 l 196 722 z m 31 794 l 56 794 l 204 921 l 353 794 l 378 794 l 217 932 l 192 932 z "},"ï":{"ha":410,"x_min":0,"x_max":0,"o":"m 196 0 l 213 0 l 213 722 l 196 722 z m 64 878 b 93 849 64 861 76 849 b 122 878 110 849 122 861 b 93 907 122 894 110 907 b 64 878 76 907 64 894 z m 286 878 b 315 849 286 861 299 849 b 344 878 332 849 344 861 b 315 907 344 894 332 907 b 286 878 299 907 286 894 z "},"ì":{"ha":410,"x_min":0,"x_max":0,"o":"m 196 0 l 213 0 l 213 722 l 196 722 z m 114 932 l 192 793 l 211 793 l 133 932 z "},"ī":{"ha":410,"x_min":0,"x_max":0,"o":"m 196 0 l 213 0 l 213 722 l 196 722 z m 17 868 l 392 868 l 392 885 l 17 885 z "},"į":{"ha":410,"x_min":0,"x_max":0,"o":"m 204 849 b 233 878 221 849 233 861 b 204 907 233 894 221 907 b 175 878 188 907 175 894 b 204 849 175 861 188 849 z m 64 -278 l 347 -278 l 347 -261 l 90 -261 l 213 0 l 213 722 l 196 722 l 196 3 z "},"ĩ":{"ha":410,"x_min":0,"x_max":0,"o":"m 196 0 l 213 0 l 213 722 l 196 722 z m 7 793 l 24 793 b 101 921 24 872 56 921 b 315 789 176 921 235 789 b 408 931 364 789 408 836 l 392 931 b 314 806 392 847 354 806 b 101 938 242 806 190 938 b 7 793 47 938 7 885 z "},"j":{"ha":403,"x_min":0,"x_max":0,"o":"m -22 -278 l 208 -278 l 208 708 l 192 708 l 192 -261 l -22 -261 z m 171 864 b 200 835 171 847 183 835 b 229 864 217 835 229 847 b 200 893 229 881 217 893 b 171 864 183 893 171 881 z "},"ȷ":{"ha":403,"x_min":0,"x_max":0,"o":"m -22 -278 l 208 -278 l 208 708 l 192 708 l 192 -261 l -22 -261 z "},"k":{"ha":785,"x_min":0,"x_max":0,"o":"m 169 346 l 517 346 l 683 0 l 701 0 l 528 361 l 701 722 l 683 722 l 511 363 l 169 363 l 169 986 l 153 986 l 153 0 l 169 0 z "},"ķ":{"ha":785,"x_min":0,"x_max":0,"o":"m 169 346 l 517 346 l 683 0 l 701 0 l 528 361 l 701 722 l 683 722 l 511 363 l 169 363 l 169 986 l 153 986 l 153 0 l 169 0 z m 283 -278 l 301 -278 l 401 -64 l 383 -64 z "},"l":{"ha":542,"x_min":0,"x_max":0,"o":"m 444 0 l 444 17 l 142 17 l 142 986 l 125 986 l 125 0 z "},"ĺ":{"ha":542,"x_min":0,"x_max":0,"o":"m 444 0 l 444 17 l 142 17 l 142 986 l 125 986 l 125 0 z m 126 1057 l 146 1057 l 224 1196 l 204 1196 z "},"ľ":{"ha":542,"x_min":0,"x_max":0,"o":"m 444 0 l 444 17 l 142 17 l 142 986 l 125 986 l 125 0 z m -40 1194 l 121 1057 l 146 1057 l 307 1194 l 282 1194 l 133 1068 l -15 1194 z "},"ļ":{"ha":542,"x_min":0,"x_max":0,"o":"m 444 0 l 444 17 l 142 17 l 142 986 l 125 986 l 125 0 z m 168 -278 l 186 -278 l 286 -64 l 268 -64 z "},"ŀ":{"ha":569,"x_min":0,"x_max":0,"o":"m 444 0 l 444 17 l 142 17 l 142 986 l 125 986 l 125 0 z m 396 458 b 465 389 396 421 428 389 b 535 458 504 389 535 421 b 465 528 535 497 504 528 b 396 458 428 528 396 497 z "},"ł":{"ha":536,"x_min":0,"x_max":0,"o":"m 69 250 l 125 292 l 125 0 l 444 0 l 444 17 l 142 17 l 142 306 l 396 499 l 396 519 l 142 326 l 142 986 l 125 986 l 125 314 l 69 272 z "},"m":{"ha":1063,"x_min":0,"x_max":0,"o":"m 125 722 l 125 0 l 142 0 l 142 706 l 524 706 l 524 0 l 540 0 l 540 706 l 728 706 b 921 501 843 706 921 624 l 921 0 l 938 0 l 938 501 b 728 722 938 633 853 722 z "},"n":{"ha":750,"x_min":0,"x_max":0,"o":"m 125 722 l 125 0 l 142 0 l 142 706 l 415 706 b 608 501 531 706 608 624 l 608 0 l 625 0 l 625 501 b 415 722 625 633 540 722 z "},"ń":{"ha":750,"x_min":0,"x_max":0,"o":"m 125 722 l 125 0 l 142 0 l 142 706 l 415 706 b 608 501 531 706 608 624 l 608 0 l 625 0 l 625 501 b 415 722 625 633 540 722 z m 368 793 l 388 793 l 465 932 l 446 932 z "},"ň":{"ha":750,"x_min":0,"x_max":0,"o":"m 125 722 l 125 0 l 142 0 l 142 706 l 415 706 b 608 501 531 706 608 624 l 608 0 l 625 0 l 625 501 b 415 722 625 633 540 722 z m 201 931 l 363 793 l 388 793 l 549 931 l 524 931 l 375 804 l 226 931 z "},"ņ":{"ha":750,"x_min":0,"x_max":0,"o":"m 125 722 l 125 0 l 142 0 l 142 706 l 415 706 b 608 501 531 706 608 624 l 608 0 l 625 0 l 625 501 b 415 722 625 633 540 722 z m 279 -278 l 297 -278 l 397 -64 l 379 -64 z "},"ñ":{"ha":750,"x_min":0,"x_max":0,"o":"m 125 722 l 125 0 l 142 0 l 142 706 l 415 706 b 608 501 531 706 608 624 l 608 0 l 625 0 l 625 501 b 415 722 625 633 540 722 z m 178 793 l 194 793 b 272 921 194 872 226 921 b 486 789 347 921 406 789 b 579 931 535 789 579 836 l 563 931 b 485 806 563 847 525 806 b 272 938 413 806 361 938 b 178 793 218 938 178 885 z "},"ŋ":{"ha":750,"x_min":0,"x_max":0,"o":"m 394 -278 l 625 -278 l 625 501 b 415 722 625 633 540 722 l 125 722 l 125 0 l 142 0 l 142 706 l 415 706 b 608 501 531 706 608 624 l 608 -261 l 394 -261 z "},"o":{"ha":903,"x_min":0,"x_max":0,"o":"m 451 10 b 100 361 258 10 100 168 b 451 713 100 554 258 713 b 803 361 644 713 803 554 b 451 10 803 168 644 10 z m 83 361 b 451 -7 83 158 249 -7 b 819 361 654 -7 819 158 b 451 729 819 564 654 729 b 83 361 249 729 83 564 z "},"ó":{"ha":903,"x_min":0,"x_max":0,"o":"m 451 10 b 100 361 258 10 100 168 b 451 713 100 554 258 713 b 803 361 644 713 803 554 b 451 10 803 168 644 10 z m 83 361 b 451 -7 83 158 249 -7 b 819 361 654 -7 819 158 b 451 729 819 564 654 729 b 83 361 249 729 83 564 z m 444 793 l 464 793 l 542 932 l 522 932 z "},"ô":{"ha":903,"x_min":0,"x_max":0,"o":"m 451 10 b 100 361 258 10 100 168 b 451 713 100 554 258 713 b 803 361 644 713 803 554 b 451 10 803 168 644 10 z m 83 361 b 451 -7 83 158 249 -7 b 819 361 654 -7 819 158 b 451 729 819 564 654 729 b 83 361 249 729 83 564 z m 278 794 l 303 794 l 451 921 l 600 794 l 625 794 l 464 932 l 439 932 z "},"ö":{"ha":903,"x_min":0,"x_max":0,"o":"m 451 10 b 100 361 258 10 100 168 b 451 713 100 554 258 713 b 803 361 644 713 803 554 b 451 10 803 168 644 10 z m 83 361 b 451 -7 83 158 249 -7 b 819 361 654 -7 819 158 b 451 729 819 564 654 729 b 83 361 249 729 83 564 z m 311 878 b 340 849 311 861 324 849 b 369 878 357 849 369 861 b 340 907 369 894 357 907 b 311 878 324 907 311 894 z m 533 878 b 563 849 533 861 546 849 b 592 878 579 849 592 861 b 563 907 592 894 579 907 b 533 878 546 907 533 894 z "},"ò":{"ha":903,"x_min":0,"x_max":0,"o":"m 451 10 b 100 361 258 10 100 168 b 451 713 100 554 258 713 b 803 361 644 713 803 554 b 451 10 803 168 644 10 z m 83 361 b 451 -7 83 158 249 -7 b 819 361 654 -7 819 158 b 451 729 819 564 654 729 b 83 361 249 729 83 564 z m 361 932 l 439 793 l 458 793 l 381 932 z "},"ő":{"ha":903,"x_min":0,"x_max":0,"o":"m 451 10 b 100 361 258 10 100 168 b 451 713 100 554 258 713 b 803 361 644 713 803 554 b 451 10 803 168 644 10 z m 83 361 b 451 -7 83 158 249 -7 b 819 361 654 -7 819 158 b 451 729 819 564 654 729 b 83 361 249 729 83 564 z m 319 793 l 338 793 l 415 1043 l 397 1043 z m 571 793 l 589 793 l 667 1043 l 649 1043 z "},"ō":{"ha":903,"x_min":0,"x_max":0,"o":"m 451 10 b 100 361 258 10 100 168 b 451 713 100 554 258 713 b 803 361 644 713 803 554 b 451 10 803 168 644 10 z m 83 361 b 451 -7 83 158 249 -7 b 819 361 654 -7 819 158 b 451 729 819 564 654 729 b 83 361 249 729 83 564 z m 222 867 l 681 867 l 681 883 l 222 883 z "},"ø":{"ha":903,"x_min":0,"x_max":0,"o":"m 451 -7 b 819 361 654 -7 819 158 b 682 647 819 476 765 581 l 739 722 l 718 722 l 669 658 b 451 729 608 703 532 729 b 83 361 249 729 83 564 b 222 74 83 244 138 142 l 165 0 l 186 0 l 235 64 b 451 -7 296 19 371 -7 z m 100 361 b 451 713 100 554 258 713 b 658 644 529 713 600 688 l 232 88 b 100 361 151 151 100 251 z m 246 78 l 672 635 b 803 361 751 569 803 471 b 451 10 803 168 644 10 b 246 78 375 10 303 35 z "},"õ":{"ha":903,"x_min":0,"x_max":0,"o":"m 451 10 b 100 361 258 10 100 168 b 451 713 100 554 258 713 b 803 361 644 713 803 554 b 451 10 803 168 644 10 z m 83 361 b 451 -7 83 158 249 -7 b 819 361 654 -7 819 158 b 451 729 819 564 654 729 b 83 361 249 729 83 564 z m 254 793 l 271 793 b 349 921 271 872 303 921 b 563 789 424 921 482 789 b 656 931 611 789 656 836 l 639 931 b 561 806 639 847 601 806 b 349 938 489 806 438 938 b 254 793 294 938 254 885 z "},"œ":{"ha":1224,"x_min":0,"x_max":0,"o":"m 386 10 b 100 361 224 10 100 164 b 386 713 100 558 224 713 b 665 361 544 713 665 558 b 386 10 665 164 544 10 z m 83 361 b 386 -7 83 156 215 -7 b 674 269 528 -7 642 110 b 972 0 704 96 819 0 l 1050 0 l 1050 17 l 972 17 b 682 361 799 17 682 146 b 972 706 682 576 799 706 l 1096 706 l 1096 294 l 857 294 l 857 278 l 1113 278 l 1113 722 l 972 722 b 674 453 819 722 704 626 b 386 729 642 613 528 729 b 83 361 215 729 83 567 z "},"p":{"ha":778,"x_min":0,"x_max":0,"o":"m 388 17 l 142 17 l 142 706 l 388 706 b 678 361 561 706 678 576 b 388 17 678 144 561 17 z m 125 -278 l 142 -278 l 142 0 l 388 0 b 694 361 565 0 693 129 b 388 722 693 593 565 722 l 125 722 z "},"þ":{"ha":778,"x_min":0,"x_max":0,"o":"m 388 17 l 142 17 l 142 706 l 388 706 b 678 361 561 706 678 576 b 388 17 678 146 561 17 z m 125 -278 l 142 -278 l 142 0 l 388 0 b 694 361 565 0 693 129 b 388 722 693 593 565 722 l 142 722 l 142 986 l 125 986 z "},"q":{"ha":792,"x_min":0,"x_max":0,"o":"m 404 706 l 650 706 l 650 17 l 404 17 b 114 361 231 17 114 146 b 404 706 114 576 231 706 z m 97 361 b 404 0 99 129 226 0 l 650 0 l 650 -278 l 667 -278 l 667 722 l 404 722 b 97 361 226 722 99 593 z "},"r":{"ha":528,"x_min":0,"x_max":0,"o":"m 444 706 l 444 722 l 125 722 l 125 0 l 142 0 l 142 706 z "},"ŕ":{"ha":528,"x_min":0,"x_max":0,"o":"m 444 706 l 444 722 l 125 722 l 125 0 l 142 0 l 142 706 z m 271 793 l 290 793 l 368 932 l 349 932 z "},"ř":{"ha":528,"x_min":0,"x_max":0,"o":"m 444 706 l 444 722 l 125 722 l 125 0 l 142 0 l 142 706 z m 104 931 l 265 793 l 290 793 l 451 931 l 426 931 l 278 804 l 129 931 z "},"ŗ":{"ha":528,"x_min":0,"x_max":0,"o":"m 444 706 l 444 722 l 125 722 l 125 0 l 142 0 l 142 706 z m 24 -278 l 42 -278 l 142 -64 l 124 -64 z "},"s":{"ha":729,"x_min":0,"x_max":0,"o":"m 100 486 b 317 706 100 608 196 706 l 542 706 l 542 722 l 317 722 b 83 486 186 722 83 618 b 317 250 83 354 186 250 l 368 250 l 368 267 l 317 267 b 100 486 196 267 100 364 z m 118 0 l 413 0 b 646 236 543 0 646 104 b 413 472 646 368 543 472 l 361 472 l 361 456 l 413 456 b 629 236 533 456 629 358 b 413 17 629 114 533 17 l 118 17 z "},"ś":{"ha":729,"x_min":0,"x_max":0,"o":"m 100 486 b 317 706 100 608 196 706 l 542 706 l 542 722 l 317 722 b 83 486 186 722 83 618 b 317 250 83 354 186 250 l 368 250 l 368 267 l 317 267 b 100 486 196 267 100 364 z m 118 0 l 413 0 b 646 236 543 0 646 104 b 413 472 646 368 543 472 l 361 472 l 361 456 l 413 456 b 629 236 533 456 629 358 b 413 17 629 114 533 17 l 118 17 z m 353 793 l 372 793 l 450 932 l 431 932 z "},"š":{"ha":729,"x_min":0,"x_max":0,"o":"m 100 486 b 317 706 100 608 196 706 l 542 706 l 542 722 l 317 722 b 83 486 186 722 83 618 b 317 250 83 354 186 250 l 368 250 l 368 267 l 317 267 b 100 486 196 267 100 364 z m 118 0 l 413 0 b 646 236 543 0 646 104 b 413 472 646 368 543 472 l 361 472 l 361 456 l 413 456 b 629 236 533 456 629 358 b 413 17 629 114 533 17 l 118 17 z m 186 931 l 347 793 l 372 793 l 533 931 l 508 931 l 360 804 l 211 931 z "},"ş":{"ha":729,"x_min":0,"x_max":0,"o":"m 100 486 b 317 706 100 608 196 706 l 542 706 l 542 722 l 317 722 b 83 486 186 722 83 618 b 317 250 83 354 186 250 l 368 250 l 368 267 l 317 267 b 100 486 196 267 100 364 z m 118 0 l 413 0 b 646 236 543 0 646 104 b 413 472 646 368 543 472 l 361 472 l 361 456 l 413 456 b 629 236 533 456 629 358 b 413 17 629 114 533 17 l 118 17 z m 331 -318 b 471 -181 415 -318 471 -262 b 331 -43 471 -99 415 -43 l 331 -60 b 454 -181 406 -60 454 -107 b 331 -301 454 -254 406 -301 z "},"ș":{"ha":729,"x_min":0,"x_max":0,"o":"m 100 486 b 317 706 100 608 196 706 l 542 706 l 542 722 l 317 722 b 83 486 186 722 83 618 b 317 250 83 354 186 250 l 368 250 l 368 267 l 317 267 b 100 486 196 267 100 364 z m 118 0 l 413 0 b 646 236 543 0 646 104 b 413 472 646 368 543 472 l 361 472 l 361 456 l 413 456 b 629 236 533 456 629 358 b 413 17 629 114 533 17 l 118 17 z m 250 -278 l 268 -278 l 368 -64 l 350 -64 z "},"ß":{"ha":958,"x_min":0,"x_max":0,"o":"m 467 0 l 547 0 b 847 303 715 0 847 133 b 567 606 847 464 729 594 l 674 901 l 222 901 l 222 515 l 83 515 l 83 499 l 222 499 l 222 0 l 239 0 l 239 885 l 650 885 l 481 417 l 499 417 l 561 589 b 831 303 715 579 831 464 b 547 17 831 143 706 17 l 467 17 z "},"t":{"ha":681,"x_min":0,"x_max":0,"o":"m 97 722 l 97 706 l 194 706 l 194 221 b 404 0 194 89 279 0 l 569 0 l 569 17 l 404 17 b 211 221 289 17 211 99 l 211 706 l 569 706 l 569 722 l 211 722 l 211 903 l 194 903 l 194 722 z "},"ŧ":{"ha":694,"x_min":0,"x_max":0,"o":"m 556 418 l 211 418 l 211 706 l 569 706 l 569 722 l 211 722 l 211 903 l 194 903 l 194 722 l 97 722 l 97 706 l 194 706 l 194 418 l 125 418 l 125 401 l 194 401 l 194 221 b 404 0 194 89 279 0 l 569 0 l 569 17 l 404 17 b 211 221 289 17 211 99 l 211 401 l 556 401 z "},"ť":{"ha":681,"x_min":0,"x_max":0,"o":"m 97 722 l 97 706 l 194 706 l 194 221 b 404 0 194 89 279 0 l 569 0 l 569 17 l 404 17 b 211 221 289 17 211 99 l 211 706 l 569 706 l 569 722 l 211 722 l 211 903 l 194 903 l 194 722 z m 29 1111 l 190 974 l 215 974 l 376 1111 l 351 1111 l 203 985 l 54 1111 z "},"ţ":{"ha":681,"x_min":0,"x_max":0,"o":"m 97 722 l 97 706 l 194 706 l 194 221 b 404 0 194 89 279 0 l 569 0 l 569 17 l 404 17 b 211 221 289 17 211 99 l 211 706 l 569 706 l 569 722 l 211 722 l 211 903 l 194 903 l 194 722 z m 375 -318 b 515 -181 460 -318 515 -262 b 375 -43 515 -99 460 -43 l 375 -60 b 499 -181 450 -60 499 -107 b 375 -301 499 -254 450 -301 z "},"ț":{"ha":681,"x_min":0,"x_max":0,"o":"m 97 722 l 97 706 l 194 706 l 194 221 b 404 0 194 89 279 0 l 569 0 l 569 17 l 404 17 b 211 221 289 17 211 99 l 211 706 l 569 706 l 569 722 l 211 722 l 211 903 l 194 903 l 194 722 z m 294 -278 l 313 -278 l 413 -64 l 394 -64 z "},"u":{"ha":750,"x_min":0,"x_max":0,"o":"m 625 0 l 625 722 l 608 722 l 608 17 l 335 17 b 142 221 219 17 142 99 l 142 722 l 125 722 l 125 221 b 335 0 125 89 210 0 z "},"ú":{"ha":750,"x_min":0,"x_max":0,"o":"m 625 0 l 625 722 l 608 722 l 608 17 l 335 17 b 142 221 219 17 142 99 l 142 722 l 125 722 l 125 221 b 335 0 125 89 210 0 z m 361 779 l 381 779 l 458 918 l 439 918 z "},"û":{"ha":750,"x_min":0,"x_max":0,"o":"m 625 0 l 625 722 l 608 722 l 608 17 l 335 17 b 142 221 219 17 142 99 l 142 722 l 125 722 l 125 221 b 335 0 125 89 210 0 z m 194 781 l 219 781 l 368 907 l 517 781 l 542 781 l 381 918 l 356 918 z "},"ü":{"ha":750,"x_min":0,"x_max":0,"o":"m 625 0 l 625 722 l 608 722 l 608 17 l 335 17 b 142 221 219 17 142 99 l 142 722 l 125 722 l 125 221 b 335 0 125 89 210 0 z m 228 864 b 257 835 228 847 240 835 b 286 864 274 835 286 847 b 257 893 286 881 274 893 b 228 864 240 893 228 881 z m 450 864 b 479 835 450 847 463 835 b 508 864 496 835 508 847 b 479 893 508 881 496 893 b 450 864 463 893 450 881 z "},"ù":{"ha":750,"x_min":0,"x_max":0,"o":"m 625 0 l 625 722 l 608 722 l 608 17 l 335 17 b 142 221 219 17 142 99 l 142 722 l 125 722 l 125 221 b 335 0 125 89 210 0 z m 278 918 l 356 779 l 375 779 l 297 918 z "},"ű":{"ha":750,"x_min":0,"x_max":0,"o":"m 625 0 l 625 722 l 608 722 l 608 17 l 335 17 b 142 221 219 17 142 99 l 142 722 l 125 722 l 125 221 b 335 0 125 89 210 0 z m 236 779 l 254 779 l 332 1029 l 314 1029 z m 488 779 l 506 779 l 583 1029 l 565 1029 z "},"ū":{"ha":750,"x_min":0,"x_max":0,"o":"m 625 0 l 625 722 l 608 722 l 608 17 l 335 17 b 142 221 219 17 142 99 l 142 722 l 125 722 l 125 221 b 335 0 125 89 210 0 z m 139 853 l 597 853 l 597 869 l 139 869 z "},"ų":{"ha":750,"x_min":0,"x_max":0,"o":"m 625 0 l 625 722 l 608 722 l 608 17 l 335 17 b 142 221 219 17 142 99 l 142 722 l 125 722 l 125 221 b 335 0 125 89 210 0 l 593 0 l 463 -278 l 746 -278 l 746 -261 l 489 -261 l 611 0 z "},"ů":{"ha":750,"x_min":0,"x_max":0,"o":"m 625 0 l 625 722 l 608 722 l 608 17 l 335 17 b 142 221 219 17 142 99 l 142 722 l 125 722 l 125 221 b 335 0 125 89 210 0 z m 264 881 b 368 776 264 822 308 776 b 472 881 425 776 472 822 b 368 985 472 939 425 985 b 264 881 308 985 264 939 z m 279 881 b 368 969 281 931 319 969 b 456 881 418 969 457 931 b 368 792 457 831 418 792 b 279 881 319 792 281 831 z "},"ũ":{"ha":750,"x_min":0,"x_max":0,"o":"m 625 0 l 625 722 l 608 722 l 608 17 l 335 17 b 142 221 219 17 142 99 l 142 722 l 125 722 l 125 221 b 335 0 125 89 210 0 z m 171 779 l 188 779 b 265 907 188 858 219 907 b 479 775 340 907 399 775 b 572 917 528 775 572 822 l 556 917 b 478 792 556 833 518 792 b 265 924 406 792 354 924 b 171 779 211 924 171 871 z "},"v":{"ha":775,"x_min":0,"x_max":0,"o":"m 689 722 l 461 17 l 315 17 l 86 722 l 69 722 l 303 0 l 472 0 l 706 722 z "},"w":{"ha":1139,"x_min":0,"x_max":0,"o":"m 88 722 l 265 0 l 390 0 l 529 706 l 610 706 l 749 0 l 874 0 l 1051 722 l 1035 722 l 861 17 l 764 17 l 625 722 l 514 722 l 375 17 l 278 17 l 104 722 z "},"ẃ":{"ha":1139,"x_min":0,"x_max":0,"o":"m 88 722 l 265 0 l 390 0 l 529 706 l 610 706 l 749 0 l 874 0 l 1051 722 l 1035 722 l 861 17 l 764 17 l 625 722 l 514 722 l 375 17 l 278 17 l 104 722 z m 563 793 l 582 793 l 660 932 l 640 932 z "},"ŵ":{"ha":1139,"x_min":0,"x_max":0,"o":"m 88 722 l 265 0 l 390 0 l 529 706 l 610 706 l 749 0 l 874 0 l 1051 722 l 1035 722 l 861 17 l 764 17 l 625 722 l 514 722 l 375 17 l 278 17 l 104 722 z m 396 794 l 421 794 l 569 921 l 718 794 l 743 794 l 582 932 l 557 932 z "},"ẅ":{"ha":1139,"x_min":0,"x_max":0,"o":"m 88 722 l 265 0 l 390 0 l 529 706 l 610 706 l 749 0 l 874 0 l 1051 722 l 1035 722 l 861 17 l 764 17 l 625 722 l 514 722 l 375 17 l 278 17 l 104 722 z m 429 878 b 458 849 429 861 442 849 b 488 878 475 849 488 861 b 458 907 488 894 475 907 b 429 878 442 907 429 894 z m 651 878 b 681 849 651 861 664 849 b 710 878 697 849 710 861 b 681 907 710 894 697 907 b 651 878 664 907 651 894 z "},"ẁ":{"ha":1139,"x_min":0,"x_max":0,"o":"m 88 722 l 265 0 l 390 0 l 529 706 l 610 706 l 749 0 l 874 0 l 1051 722 l 1035 722 l 861 17 l 764 17 l 625 722 l 514 722 l 375 17 l 278 17 l 104 722 z m 479 932 l 557 793 l 576 793 l 499 932 z "},"x":{"ha":714,"x_min":0,"x_max":0,"o":"m 615 722 l 357 374 l 99 722 l 78 722 l 346 361 l 78 0 l 99 0 l 357 349 l 615 0 l 636 0 l 368 361 l 636 722 z "},"y":{"ha":775,"x_min":0,"x_max":0,"o":"m 689 722 l 382 10 l 86 722 l 69 722 l 374 -14 l 374 -261 l 158 -261 l 158 -278 l 390 -278 l 390 -14 l 706 722 z "},"ý":{"ha":775,"x_min":0,"x_max":0,"o":"m 689 722 l 382 10 l 86 722 l 69 722 l 374 -14 l 374 -261 l 158 -261 l 158 -278 l 390 -278 l 390 -14 l 706 722 z m 381 793 l 400 793 l 478 932 l 458 932 z "},"ŷ":{"ha":775,"x_min":0,"x_max":0,"o":"m 689 722 l 382 10 l 86 722 l 69 722 l 374 -14 l 374 -261 l 158 -261 l 158 -278 l 390 -278 l 390 -14 l 706 722 z m 214 794 l 239 794 l 388 921 l 536 794 l 561 794 l 400 932 l 375 932 z "},"ÿ":{"ha":775,"x_min":0,"x_max":0,"o":"m 689 722 l 382 10 l 86 722 l 69 722 l 374 -14 l 374 -261 l 158 -261 l 158 -278 l 390 -278 l 390 -14 l 706 722 z m 247 878 b 276 849 247 861 260 849 b 306 878 293 849 306 861 b 276 907 306 894 293 907 b 247 878 260 907 247 894 z m 469 878 b 499 849 469 861 482 849 b 528 878 515 849 528 861 b 499 907 528 894 515 907 b 469 878 482 907 469 894 z "},"ỳ":{"ha":775,"x_min":0,"x_max":0,"o":"m 689 722 l 382 10 l 86 722 l 69 722 l 374 -14 l 374 -261 l 158 -261 l 158 -278 l 390 -278 l 390 -14 l 706 722 z m 297 932 l 375 793 l 394 793 l 317 932 z "},"ỹ":{"ha":775,"x_min":0,"x_max":0,"o":"m 689 722 l 382 10 l 86 722 l 69 722 l 374 -14 l 374 -261 l 158 -261 l 158 -278 l 390 -278 l 390 -14 l 706 722 z m 190 793 l 207 793 b 285 921 207 872 239 921 b 499 789 360 921 418 789 b 592 931 547 789 592 836 l 575 931 b 497 806 575 847 538 806 b 285 938 425 806 374 938 b 190 793 231 938 190 885 z "},"z":{"ha":688,"x_min":0,"x_max":0,"o":"m 604 722 l 92 722 l 92 706 l 572 706 l 83 0 l 596 0 l 596 17 l 115 17 z "},"ź":{"ha":688,"x_min":0,"x_max":0,"o":"m 604 722 l 92 722 l 92 706 l 572 706 l 83 0 l 596 0 l 596 17 l 115 17 z m 338 793 l 357 793 l 435 932 l 415 932 z "},"ž":{"ha":688,"x_min":0,"x_max":0,"o":"m 604 722 l 92 722 l 92 706 l 572 706 l 83 0 l 596 0 l 596 17 l 115 17 z m 171 931 l 332 793 l 357 793 l 518 931 l 493 931 l 344 804 l 196 931 z "},"ż":{"ha":688,"x_min":0,"x_max":0,"o":"m 604 722 l 92 722 l 92 706 l 572 706 l 83 0 l 596 0 l 596 17 l 115 17 z m 315 878 b 344 849 315 861 328 849 b 374 878 361 849 374 861 b 344 907 374 894 361 907 b 315 878 328 907 315 894 z "},"А":{"ha":889,"x_min":0,"x_max":0,"o":"m 819 0 l 500 903 l 389 903 l 69 0 l 88 0 l 190 292 l 699 292 l 801 0 z m 197 308 l 401 886 l 489 886 l 693 308 z "},"Б":{"ha":871,"x_min":0,"x_max":0,"o":"m 167 903 l 167 0 l 444 0 b 746 303 622 0 746 129 b 444 606 746 476 622 606 l 183 606 l 183 886 l 681 886 l 681 903 z m 183 17 l 183 589 l 444 589 b 729 303 613 589 729 467 b 444 17 729 139 613 17 z "},"В":{"ha":822,"x_min":0,"x_max":0,"o":"m 181 0 l 451 0 b 753 303 629 0 753 129 b 610 567 753 408 706 511 b 611 604 611 579 611 592 b 313 903 611 783 492 903 l 181 903 z m 197 17 l 197 306 l 313 306 b 607 549 472 306 585 401 b 736 303 678 507 736 418 b 451 17 736 139 619 17 z m 197 322 l 197 886 l 313 886 b 594 604 483 886 594 775 b 313 322 594 433 483 322 z "},"Г":{"ha":750,"x_min":0,"x_max":0,"o":"m 167 903 l 167 0 l 183 0 l 183 886 l 681 886 l 681 903 z "},"Ґ":{"ha":736,"x_min":0,"x_max":0,"o":"m 167 903 l 167 0 l 183 0 l 183 886 l 667 886 l 667 1042 l 650 1042 l 650 903 z "},"Д":{"ha":1083,"x_min":0,"x_max":0,"o":"m 239 17 l 139 17 l 139 -139 l 156 -139 l 156 0 l 928 0 l 928 -139 l 944 -139 l 944 17 l 833 17 l 833 903 l 328 903 l 271 154 b 239 17 267 93 256 53 z m 256 17 b 288 153 272 53 283 92 l 343 886 l 817 886 l 817 17 z "},"Е":{"ha":722,"x_min":0,"x_max":0,"o":"m 167 903 l 167 0 l 583 0 l 583 17 l 183 17 l 183 442 l 514 442 l 514 458 l 183 458 l 183 886 l 583 886 l 583 903 z "},"Ё":{"ha":722,"x_min":0,"x_max":0,"o":"m 167 903 l 167 0 l 583 0 l 583 17 l 183 17 l 183 442 l 514 442 l 514 458 l 183 458 l 183 886 l 583 886 l 583 903 z m 242 1058 b 271 1029 242 1042 254 1029 b 300 1058 288 1029 300 1042 b 271 1088 300 1075 288 1088 b 242 1058 254 1088 242 1075 z m 464 1058 b 493 1029 464 1042 476 1029 b 522 1058 510 1029 522 1042 b 493 1088 522 1075 510 1088 b 464 1058 476 1088 464 1075 z "},"Ж":{"ha":1194,"x_min":0,"x_max":0,"o":"m 286 522 l 589 522 l 589 0 l 606 0 l 606 522 l 908 522 l 1108 0 l 1125 0 l 919 540 l 1093 901 l 1075 901 l 901 539 l 606 539 l 606 903 l 589 903 l 589 539 l 293 539 l 119 901 l 101 901 l 275 540 l 69 0 l 86 0 z "},"З":{"ha":903,"x_min":0,"x_max":0,"o":"m 410 0 l 479 0 b 750 228 660 0 750 101 b 553 453 750 335 685 425 b 750 676 685 479 750 569 b 479 903 750 804 658 903 l 410 903 b 125 671 243 903 125 840 l 142 671 b 410 886 142 831 251 886 l 479 886 b 733 676 647 886 733 796 b 465 461 733 556 644 461 l 319 461 l 319 444 l 465 444 b 733 228 644 444 733 349 b 479 17 733 110 647 17 l 410 17 b 142 243 251 17 142 85 l 125 243 b 410 0 125 76 243 0 z "},"И":{"ha":882,"x_min":0,"x_max":0,"o":"m 715 0 l 715 903 l 604 903 l 269 449 l 183 449 l 183 903 l 167 903 l 167 0 l 183 0 l 183 432 l 278 432 l 613 886 l 699 886 l 699 0 z "},"Й":{"ha":882,"x_min":0,"x_max":0,"o":"m 715 0 l 715 903 l 604 903 l 269 449 l 183 449 l 183 903 l 167 903 l 167 0 l 183 0 l 183 432 l 278 432 l 613 886 l 699 886 l 699 0 z m 304 1113 b 442 972 304 1028 360 972 b 579 1113 524 972 579 1028 l 563 1113 b 442 989 563 1038 515 989 b 321 1113 368 989 321 1038 z "},"К":{"ha":861,"x_min":0,"x_max":0,"o":"m 183 522 l 521 522 l 721 0 l 736 0 l 531 543 l 704 901 l 686 901 l 511 539 l 183 539 l 183 903 l 167 903 l 167 0 l 183 0 z "},"Л":{"ha":986,"x_min":0,"x_max":0,"o":"m 803 901 l 283 901 l 261 261 b 99 17 254 71 224 17 l 83 17 l 83 0 l 104 0 b 278 261 239 0 271 74 l 300 885 l 803 885 l 803 0 l 819 0 l 819 903 l 803 903 z "},"М":{"ha":1161,"x_min":0,"x_max":0,"o":"m 525 432 l 636 432 l 892 886 l 978 886 l 978 0 l 994 0 l 994 903 l 882 903 l 626 449 l 535 449 l 279 903 l 167 903 l 167 0 l 183 0 l 183 886 l 269 886 z "},"Н":{"ha":882,"x_min":0,"x_max":0,"o":"m 167 903 l 167 0 l 183 0 l 183 444 l 699 444 l 699 0 l 715 0 l 715 903 l 699 903 l 699 461 l 183 461 l 183 903 z "},"О":{"ha":1167,"x_min":0,"x_max":0,"o":"m 583 -22 b 1056 450 844 -22 1056 189 b 583 922 1056 711 844 922 b 111 450 322 922 111 711 b 583 -22 111 189 322 -22 z m 128 450 b 583 906 128 703 331 906 b 1039 450 836 906 1039 703 b 583 -6 1039 197 832 -6 b 128 450 331 -6 128 197 z "},"П":{"ha":875,"x_min":0,"x_max":0,"o":"m 167 903 l 167 0 l 183 0 l 183 886 l 692 886 l 692 0 l 708 0 l 708 903 z "},"Р":{"ha":840,"x_min":0,"x_max":0,"o":"m 167 903 l 167 0 l 183 0 l 183 297 l 444 297 b 743 600 624 297 743 418 b 444 903 743 782 624 903 z m 183 314 l 183 886 l 444 886 b 726 600 615 886 726 774 b 444 314 726 426 615 314 z "},"С":{"ha":854,"x_min":0,"x_max":0,"o":"m 549 0 l 715 0 l 715 17 l 549 17 b 128 451 296 17 128 190 b 549 886 128 715 297 886 l 715 886 l 715 903 l 549 903 b 111 451 286 903 111 721 b 549 0 111 181 286 0 z "},"Т":{"ha":743,"x_min":0,"x_max":0,"o":"m 69 886 l 364 886 l 364 0 l 381 0 l 381 886 l 674 886 l 674 903 l 69 903 z "},"У":{"ha":958,"x_min":0,"x_max":0,"o":"m 406 251 l 497 251 b 246 17 390 64 328 17 l 211 17 l 211 0 l 246 0 b 517 251 336 0 401 50 l 889 901 l 871 901 l 507 268 l 415 268 l 88 901 l 69 901 z "},"Ў":{"ha":958,"x_min":0,"x_max":0,"o":"m 406 251 l 497 251 b 246 17 390 64 328 17 l 211 17 l 211 0 l 246 0 b 517 251 336 0 401 50 l 889 901 l 871 901 l 507 268 l 415 268 l 88 901 l 69 901 z m 342 1113 b 479 972 342 1028 397 972 b 617 1113 561 972 617 1028 l 600 1113 b 479 989 600 1038 553 989 b 358 1113 406 989 358 1038 z "},"Ф":{"ha":1167,"x_min":0,"x_max":0,"o":"m 1056 453 b 701 825 1056 661 900 825 l 606 825 l 606 903 l 589 903 l 589 825 l 465 825 b 111 453 267 825 111 661 b 465 81 111 244 267 81 l 589 81 l 589 0 l 606 0 l 606 81 l 701 81 b 1056 453 900 81 1056 244 z m 128 453 b 465 808 128 651 276 808 l 589 808 l 589 97 l 465 97 b 128 453 276 97 128 254 z m 606 97 l 606 808 l 701 808 b 1039 453 890 808 1039 651 b 701 97 1039 254 890 97 z "},"Х":{"ha":747,"x_min":0,"x_max":0,"o":"m 383 451 l 678 903 l 658 903 l 374 467 l 89 903 l 69 903 l 364 451 l 69 0 l 89 0 l 374 436 l 658 0 l 678 0 z "},"Ч":{"ha":829,"x_min":0,"x_max":0,"o":"m 663 0 l 663 903 l 646 903 l 646 386 l 307 386 b 86 604 183 386 86 482 l 86 901 l 69 901 l 69 604 b 307 369 69 472 174 369 l 646 369 l 646 0 z "},"Ц":{"ha":958,"x_min":0,"x_max":0,"o":"m 833 17 l 708 17 l 708 903 l 692 903 l 692 17 l 183 17 l 183 903 l 167 903 l 167 0 l 817 0 l 817 -139 l 833 -139 z "},"Ш":{"ha":1228,"x_min":0,"x_max":0,"o":"m 167 0 l 1061 0 l 1061 903 l 1044 903 l 1044 17 l 622 17 l 622 903 l 606 903 l 606 17 l 183 17 l 183 903 l 167 903 z "},"Щ":{"ha":1325,"x_min":0,"x_max":0,"o":"m 167 0 l 1183 0 l 1183 -139 l 1200 -139 l 1200 17 l 1061 17 l 1061 903 l 1044 903 l 1044 17 l 622 17 l 622 903 l 606 903 l 606 17 l 183 17 l 183 903 l 167 903 z "},"Ь":{"ha":871,"x_min":0,"x_max":0,"o":"m 167 0 l 444 0 b 746 303 622 0 746 129 b 444 606 746 476 622 606 l 183 606 l 183 903 l 167 903 z m 183 17 l 183 589 l 444 589 b 729 303 613 589 729 467 b 444 17 729 139 613 17 z "},"Ы":{"ha":1176,"x_min":0,"x_max":0,"o":"m 167 0 l 444 0 b 746 303 622 0 746 129 b 444 606 746 476 622 606 l 183 606 l 183 903 l 167 903 z m 183 17 l 183 589 l 444 589 b 729 303 613 589 729 467 b 444 17 729 139 613 17 z m 993 0 l 1010 0 l 1010 903 l 993 903 z "},"Ъ":{"ha":989,"x_min":0,"x_max":0,"o":"m 125 886 l 285 886 l 285 0 l 563 0 b 864 303 740 0 864 129 b 563 606 864 476 740 606 l 301 606 l 301 903 l 125 903 z m 301 17 l 301 589 l 563 589 b 847 303 731 589 847 467 b 563 17 847 139 731 17 z "},"Є":{"ha":1124,"x_min":0,"x_max":0,"o":"m 1007 192 l 988 192 b 611 -6 906 72 768 -6 b 156 442 365 -6 160 193 l 735 442 l 735 458 l 156 458 b 611 906 160 707 361 906 b 988 708 768 906 906 828 l 1007 708 b 611 922 922 838 776 922 b 139 450 350 922 139 711 b 611 -22 139 189 350 -22 b 1007 192 776 -22 922 63 z "},"Э":{"ha":1124,"x_min":0,"x_max":0,"o":"m 136 192 l 117 192 b 513 -22 201 63 347 -22 b 985 450 774 -22 985 189 b 513 922 985 711 774 922 b 117 708 347 922 201 838 l 136 708 b 513 906 218 828 356 906 b 968 458 763 906 964 707 l 389 458 l 389 442 l 968 442 b 513 -6 964 193 758 -6 b 136 192 356 -6 218 72 z "},"І":{"ha":417,"x_min":0,"x_max":0,"o":"m 200 0 l 217 0 l 217 903 l 200 903 z "},"Ї":{"ha":417,"x_min":0,"x_max":0,"o":"m 200 0 l 217 0 l 217 903 l 200 903 z m 68 1057 b 97 1028 68 1040 81 1028 b 126 1057 114 1028 126 1040 b 97 1086 126 1074 114 1086 b 68 1057 81 1086 68 1074 z m 290 1057 b 319 1028 290 1040 303 1028 b 349 1057 336 1028 349 1040 b 319 1086 349 1074 336 1086 b 290 1057 303 1086 290 1074 z "},"Ю":{"ha":1389,"x_min":0,"x_max":0,"o":"m 875 -22 b 1319 450 1124 -22 1319 186 b 875 922 1319 714 1124 922 b 431 460 629 922 435 719 l 183 460 l 183 903 l 167 903 l 167 0 l 183 0 l 183 443 l 431 443 b 875 -22 433 182 631 -22 z m 447 450 b 875 906 447 706 636 906 b 1303 450 1114 906 1303 706 b 875 -6 1303 194 1114 -6 b 447 450 636 -6 447 194 z "},"Я":{"ha":892,"x_min":0,"x_max":0,"o":"m 438 297 l 708 297 l 708 0 l 725 0 l 725 903 l 438 903 b 139 600 258 903 139 782 b 383 301 139 438 235 324 l 235 0 l 253 0 l 400 299 b 438 297 413 297 425 297 z m 156 600 b 438 886 156 774 267 886 l 708 886 l 708 314 l 438 314 b 156 600 267 314 156 426 z "},"а":{"ha":750,"x_min":0,"x_max":0,"o":"m 622 361 l 622 17 l 128 17 l 128 428 l 447 428 l 447 444 l 111 444 l 111 0 l 639 0 l 639 361 b 332 722 638 593 510 722 l 111 722 l 111 706 l 332 706 b 622 361 506 706 622 576 z "},"б":{"ha":903,"x_min":0,"x_max":0,"o":"m 83 590 l 83 340 b 451 -7 85 147 247 -7 b 819 340 657 -7 819 146 b 451 688 819 535 657 688 b 100 457 286 688 147 596 l 100 590 b 368 900 100 801 193 878 l 569 926 b 760 1075 696 943 760 989 l 760 1103 l 743 1103 l 743 1075 b 568 943 743 997 685 958 l 368 917 b 83 590 196 894 83 821 z m 100 340 b 451 671 100 525 254 671 b 803 340 649 671 803 525 b 451 10 803 156 649 10 b 100 340 254 10 100 156 z "},"в":{"ha":826,"x_min":0,"x_max":0,"o":"m 604 486 b 371 722 604 618 501 722 l 125 722 l 125 0 l 468 0 b 715 236 607 0 715 104 b 599 433 715 328 663 394 b 604 486 603 450 604 468 z m 142 17 l 142 250 l 371 250 b 594 417 478 250 565 319 b 699 236 656 379 699 317 b 468 17 699 114 597 17 z m 142 267 l 142 706 l 371 706 b 588 486 492 706 588 608 b 371 267 588 364 492 267 z "},"г":{"ha":674,"x_min":0,"x_max":0,"o":"m 563 706 l 563 722 l 125 722 l 125 0 l 142 0 l 142 706 z "},"ґ":{"ha":701,"x_min":0,"x_max":0,"o":"m 590 706 l 590 861 l 574 861 l 574 722 l 125 722 l 125 0 l 142 0 l 142 706 z "},"д":{"ha":993,"x_min":0,"x_max":0,"o":"m 910 17 l 763 17 l 763 722 l 272 722 l 229 154 b 197 17 225 93 214 53 l 83 17 l 83 -139 l 100 -139 l 100 0 l 893 0 l 893 -139 l 910 -139 z m 214 17 b 246 153 231 53 242 92 l 288 706 l 746 706 l 746 17 z "},"е":{"ha":757,"x_min":0,"x_max":0,"o":"m 97 361 b 404 0 99 129 226 0 l 564 0 l 564 17 l 404 17 b 114 361 231 17 114 146 b 404 706 114 576 231 706 l 629 706 l 629 294 l 289 294 l 289 278 l 646 278 l 646 722 l 404 722 b 97 361 226 722 99 593 z "},"ё":{"ha":757,"x_min":0,"x_max":0,"o":"m 97 361 b 404 0 99 129 226 0 l 564 0 l 564 17 l 404 17 b 114 361 231 17 114 146 b 404 706 114 576 231 706 l 629 706 l 629 294 l 289 294 l 289 278 l 646 278 l 646 722 l 404 722 b 97 361 226 722 99 593 z m 318 878 b 347 849 318 861 331 849 b 376 878 364 849 376 861 b 347 907 376 894 364 907 b 318 878 331 907 318 894 z m 540 878 b 569 849 540 861 553 849 b 599 878 586 849 599 861 b 569 907 599 894 586 907 b 540 878 553 907 540 894 z "},"ж":{"ha":1188,"x_min":0,"x_max":0,"o":"m 142 722 l 124 722 l 257 361 l 106 0 l 126 0 l 267 346 l 585 346 l 585 0 l 601 0 l 601 346 l 921 346 l 1061 0 l 1082 0 l 931 361 l 1064 722 l 1046 722 l 914 363 l 601 363 l 601 722 l 585 722 l 585 363 l 274 363 z "},"з":{"ha":789,"x_min":0,"x_max":0,"o":"m 460 722 l 342 722 b 83 493 171 722 83 644 l 100 493 b 342 706 100 635 181 706 l 460 706 b 689 526 604 706 689 631 b 446 369 689 419 599 369 l 300 369 l 300 353 l 446 353 b 689 196 599 353 689 303 b 460 17 689 92 604 17 l 342 17 b 100 229 183 17 100 88 l 83 229 b 342 0 83 78 174 0 l 460 0 b 706 196 614 0 706 82 b 544 361 706 288 647 342 b 706 526 647 381 706 435 b 460 722 706 640 614 722 z "},"и":{"ha":806,"x_min":0,"x_max":0,"o":"m 239 251 l 574 706 l 664 706 l 664 0 l 681 0 l 681 722 l 565 722 l 231 268 l 142 268 l 142 722 l 125 722 l 125 0 l 142 0 l 142 251 z "},"й":{"ha":806,"x_min":0,"x_max":0,"o":"m 239 251 l 574 706 l 664 706 l 664 0 l 681 0 l 681 722 l 565 722 l 231 268 l 142 268 l 142 722 l 125 722 l 125 0 l 142 0 l 142 251 z m 265 932 b 403 792 265 847 321 792 b 540 932 485 792 540 847 l 524 932 b 403 808 524 857 476 808 b 282 932 329 808 282 857 z "},"к":{"ha":785,"x_min":0,"x_max":0,"o":"m 169 346 l 517 346 l 683 0 l 701 0 l 528 361 l 701 722 l 683 722 l 511 363 l 169 363 l 169 722 l 153 722 l 153 0 l 169 0 z "},"л":{"ha":924,"x_min":0,"x_max":0,"o":"m 799 0 l 799 722 l 311 722 l 299 356 b 132 17 289 85 261 17 l 97 17 l 97 0 l 132 0 b 315 356 268 0 306 68 l 328 706 l 782 706 l 782 0 z "},"м":{"ha":1042,"x_min":0,"x_max":0,"o":"m 465 0 l 576 0 l 814 706 l 900 706 l 900 0 l 917 0 l 917 722 l 801 722 l 564 17 l 478 17 l 240 722 l 125 722 l 125 0 l 142 0 l 142 706 l 228 706 z "},"н":{"ha":806,"x_min":0,"x_max":0,"o":"m 681 0 l 681 722 l 664 722 l 664 376 l 142 376 l 142 722 l 125 722 l 125 0 l 142 0 l 142 360 l 664 360 l 664 0 z "},"о":{"ha":903,"x_min":0,"x_max":0,"o":"m 451 10 b 100 361 258 10 100 168 b 451 713 100 554 258 713 b 803 361 644 713 803 554 b 451 10 803 168 644 10 z m 83 361 b 451 -7 83 158 249 -7 b 819 361 654 -7 819 158 b 451 729 819 564 654 729 b 83 361 249 729 83 564 z "},"п":{"ha":833,"x_min":0,"x_max":0,"o":"m 708 0 l 708 722 l 125 722 l 125 0 l 142 0 l 142 706 l 692 706 l 692 0 z "},"р":{"ha":792,"x_min":0,"x_max":0,"o":"m 388 17 l 142 17 l 142 706 l 388 706 b 678 361 561 706 678 576 b 388 17 678 144 561 17 z m 125 -278 l 142 -278 l 142 0 l 388 0 b 694 361 565 0 693 129 b 388 722 693 593 565 722 l 125 722 z "},"с":{"ha":639,"x_min":0,"x_max":0,"o":"m 542 17 l 404 17 b 114 361 231 17 114 146 b 404 706 114 576 231 706 l 542 706 l 542 722 l 404 722 b 97 361 226 722 99 593 b 404 0 99 129 226 0 l 542 0 z "},"т":{"ha":819,"x_min":0,"x_max":0,"o":"m 708 706 l 708 722 l 111 722 l 111 706 l 401 706 l 401 0 l 418 0 l 418 706 z "},"у":{"ha":858,"x_min":0,"x_max":0,"o":"m 731 722 l 424 10 l 128 722 l 111 722 l 415 -14 l 415 -261 l 200 -261 l 200 -278 l 432 -278 l 432 -14 l 747 722 z "},"ў":{"ha":858,"x_min":0,"x_max":0,"o":"m 731 722 l 424 10 l 128 722 l 111 722 l 415 -14 l 415 -261 l 200 -261 l 200 -278 l 432 -278 l 432 -14 l 747 722 z m 292 932 b 429 792 292 847 347 792 b 567 932 511 792 567 847 l 550 932 b 429 808 550 857 503 808 b 308 932 356 808 308 857 z "},"ф":{"ha":1076,"x_min":0,"x_max":0,"o":"m 531 -278 l 547 -278 l 547 0 l 686 0 b 993 361 864 0 992 129 b 686 722 992 593 864 722 l 547 722 l 547 986 l 531 986 l 531 722 l 390 722 b 83 361 213 722 85 593 b 390 0 85 129 213 0 l 531 0 z m 100 361 b 390 706 100 576 217 706 l 531 706 l 531 17 l 390 17 b 100 361 217 17 100 144 z m 547 17 l 547 706 l 686 706 b 976 361 860 706 976 576 b 686 17 976 146 860 17 z "},"х":{"ha":769,"x_min":0,"x_max":0,"o":"m 643 722 l 385 374 l 126 722 l 106 722 l 374 361 l 106 0 l 126 0 l 385 349 l 643 0 l 664 0 l 396 361 l 664 722 z "},"ч":{"ha":736,"x_min":0,"x_max":0,"o":"m 611 0 l 611 722 l 594 722 l 594 268 l 335 268 b 114 486 211 268 114 364 l 114 722 l 97 722 l 97 486 b 335 251 97 354 201 251 l 594 251 l 594 0 z "},"ц":{"ha":924,"x_min":0,"x_max":0,"o":"m 840 17 l 717 17 l 717 722 l 700 722 l 700 17 l 142 17 l 142 722 l 125 722 l 125 0 l 824 0 l 824 -139 l 840 -139 z "},"ш":{"ha":1144,"x_min":0,"x_max":0,"o":"m 1019 0 l 1019 722 l 1003 722 l 1003 17 l 581 17 l 581 722 l 564 722 l 564 17 l 142 17 l 142 722 l 125 722 l 125 0 z "},"щ":{"ha":1236,"x_min":0,"x_max":0,"o":"m 1153 -139 l 1153 17 l 1031 17 l 1031 722 l 1014 722 l 1014 17 l 586 17 l 586 722 l 569 722 l 569 17 l 142 17 l 142 722 l 125 722 l 125 0 l 1136 0 l 1136 -139 z "},"ь":{"ha":743,"x_min":0,"x_max":0,"o":"m 615 250 b 378 17 615 119 511 17 l 142 17 l 142 483 l 378 483 b 615 250 511 483 615 381 z m 125 0 l 378 0 b 632 250 519 0 632 110 b 378 500 632 390 519 500 l 142 500 l 142 722 l 125 722 z "},"ы":{"ha":1021,"x_min":0,"x_max":0,"o":"m 664 250 b 426 17 664 119 560 17 l 142 17 l 142 483 l 426 483 b 664 250 560 483 664 381 z m 125 0 l 426 0 b 681 250 568 0 681 110 b 426 500 681 390 568 500 l 142 500 l 142 722 l 125 722 z m 879 0 l 896 0 l 896 722 l 879 722 z "},"ъ":{"ha":813,"x_min":0,"x_max":0,"o":"m 239 500 l 239 722 l 69 722 l 69 706 l 222 706 l 222 0 l 475 0 b 729 250 617 0 729 110 b 475 500 729 390 617 500 z m 239 17 l 239 483 l 475 483 b 713 250 608 483 713 381 b 475 17 713 119 608 17 z "},"є":{"ha":881,"x_min":0,"x_max":0,"o":"m 83 361 b 451 -7 83 158 249 -7 b 797 236 610 -7 746 94 l 781 236 b 451 10 713 68 561 10 b 100 353 260 10 104 163 l 592 353 l 592 369 l 100 369 b 451 713 104 560 260 713 b 781 486 561 713 713 654 l 797 486 b 451 729 746 628 610 729 b 83 361 249 729 83 564 z "},"э":{"ha":881,"x_min":0,"x_max":0,"o":"m 797 361 b 429 729 797 564 632 729 b 83 486 271 729 135 628 l 100 486 b 429 713 168 654 319 713 b 781 369 621 713 776 560 l 289 369 l 289 353 l 781 353 b 429 10 776 163 621 10 b 100 236 319 10 168 68 l 83 236 b 429 -7 135 94 271 -7 b 797 361 632 -7 797 158 z "},"і":{"ha":410,"x_min":0,"x_max":0,"o":"m 196 0 l 213 0 l 213 722 l 196 722 z m 175 878 b 204 849 175 861 188 849 b 233 878 221 849 233 861 b 204 907 233 894 221 907 b 175 878 188 907 175 894 z "},"ї":{"ha":411,"x_min":0,"x_max":0,"o":"m 197 0 l 214 0 l 214 722 l 197 722 z m 65 878 b 94 849 65 861 78 849 b 124 878 111 849 124 861 b 94 907 124 894 111 907 b 65 878 78 907 65 894 z m 288 878 b 317 849 288 861 300 849 b 346 878 333 849 346 861 b 317 907 346 894 333 907 b 288 878 300 907 288 894 z "},"ю":{"ha":1194,"x_min":0,"x_max":0,"o":"m 764 10 b 433 361 579 10 433 164 b 764 713 433 558 579 713 b 1094 361 949 713 1094 558 b 764 10 1094 164 949 10 z m 111 0 l 128 0 l 128 360 l 417 360 b 764 -7 417 154 569 -7 b 1111 361 958 -7 1111 156 b 764 729 1111 567 958 729 b 417 376 574 729 424 575 l 128 376 l 128 722 l 111 722 z "},"я":{"ha":742,"x_min":0,"x_max":0,"o":"m 97 472 b 275 233 97 358 171 264 l 167 0 l 185 0 l 292 229 b 351 222 311 225 331 222 l 614 222 l 614 0 l 631 0 l 631 722 l 351 722 b 97 472 210 722 97 613 z m 114 472 b 351 706 114 603 218 706 l 614 706 l 614 239 l 351 239 b 114 472 218 239 114 342 z "},"ꙮ":{"ha":1228,"x_min":0,"x_max":0,"o":"m 614 271 b 647 274 625 271 638 272 b 613 215 632 257 621 238 b 576 275 604 238 592 257 b 614 271 589 272 601 271 z m 94 450 b 274 271 94 350 174 271 b 310 274 286 271 297 272 b 264 154 281 243 264 200 b 443 -25 264 54 343 -25 b 611 93 521 -25 586 24 b 781 -26 636 22 701 -26 b 960 153 881 -26 960 53 b 913 275 960 201 942 244 b 954 271 925 272 940 271 b 1133 450 1054 271 1133 350 b 954 629 1133 551 1054 629 b 914 625 940 629 926 628 b 960 746 942 657 960 699 b 781 925 960 847 881 925 b 611 807 701 925 636 876 b 443 924 588 876 521 924 b 264 744 343 924 264 844 b 308 626 264 699 281 657 b 274 629 297 628 285 629 b 94 450 174 629 94 550 z m 114 449 b 272 613 114 538 186 613 b 340 597 296 613 319 607 b 365 582 347 592 357 588 b 435 465 404 556 431 513 b 435 450 435 460 435 456 l 435 435 b 272 290 428 354 356 290 b 114 449 186 290 114 363 z m 219 449 b 272 507 219 481 244 507 b 331 449 304 507 331 481 b 272 396 331 421 304 396 b 219 449 244 396 219 421 z m 283 153 b 361 293 283 211 315 264 b 369 299 364 294 367 296 b 442 317 392 310 415 317 b 603 179 521 317 590 256 b 601 153 601 171 601 163 b 603 126 601 144 601 135 b 442 -6 590 53 521 -6 b 283 153 356 -6 283 67 z m 283 743 b 442 907 283 832 356 907 b 603 771 521 907 589 847 b 601 746 601 763 601 754 b 603 718 601 736 603 728 b 442 585 590 643 522 585 b 283 743 356 585 283 657 z m 389 153 b 442 211 389 185 414 211 b 500 153 474 211 500 185 b 442 100 500 125 474 100 b 389 153 414 100 389 125 z m 389 743 b 442 801 389 775 414 801 b 500 743 474 801 500 775 b 442 690 500 715 474 690 b 389 743 414 690 389 715 z m 407 331 b 444 393 424 347 436 369 b 481 329 451 369 464 347 b 443 333 468 332 456 333 b 407 331 431 333 419 332 z m 410 568 b 443 565 421 567 432 565 b 479 569 456 565 468 567 b 444 507 464 551 451 531 b 410 568 436 531 425 551 z m 454 449 b 526 585 454 506 483 556 b 544 596 532 589 539 592 b 613 613 565 607 588 613 b 678 599 636 613 658 607 b 706 583 686 593 696 588 b 775 465 743 556 771 513 b 775 450 775 460 775 456 l 775 435 b 613 290 768 354 696 290 b 454 449 526 290 454 363 z m 560 449 b 613 507 560 481 585 507 b 671 449 644 507 671 481 b 613 396 671 421 644 396 b 560 449 585 396 560 421 z m 578 625 b 613 685 593 643 604 663 b 646 626 619 663 632 643 b 614 629 636 628 625 629 b 578 625 601 629 589 628 z m 621 138 b 622 154 622 143 622 149 l 622 168 b 697 290 626 219 656 265 b 711 299 701 293 706 296 b 779 315 732 310 754 315 b 943 151 868 315 943 240 b 779 -7 943 65 868 -7 b 621 138 697 -7 629 57 z m 622 729 b 622 744 622 735 622 739 l 622 760 b 779 908 629 842 699 908 b 943 744 868 908 943 833 b 779 586 943 658 868 586 b 706 604 753 586 728 593 b 700 607 704 606 703 607 b 622 729 657 633 626 678 z m 726 151 b 779 210 726 183 751 210 b 838 151 811 210 838 183 b 779 99 838 124 811 99 b 726 151 751 99 726 124 z m 726 744 b 779 803 726 776 751 803 b 838 744 811 803 838 776 b 779 692 838 717 811 692 b 726 744 751 692 726 717 z m 747 329 b 785 393 764 347 776 369 b 824 328 792 368 806 346 b 781 332 810 331 796 332 b 747 329 769 332 757 331 z m 749 569 b 781 567 758 568 769 567 b 821 571 794 567 808 568 b 785 507 806 553 792 532 b 749 569 776 531 764 551 z m 794 449 b 953 613 794 538 867 613 b 1117 449 1042 613 1117 538 b 953 290 1117 363 1042 290 b 794 449 867 290 794 363 z m 900 449 b 953 507 900 481 925 507 b 1011 449 985 507 1011 481 b 953 396 1011 421 985 396 b 900 449 925 396 900 421 z "},"ⵯ":{"ha":556,"x_min":0,"x_max":0,"o":"m 69 901 l 69 583 l 486 583 l 486 901 l 469 901 l 469 600 l 86 600 l 86 901 z "},"ⴰ":{"ha":497,"x_min":0,"x_max":0,"o":"m 249 -14 b 428 165 349 -14 428 65 b 249 344 428 265 349 344 b 69 165 149 344 69 265 b 249 -14 69 65 149 -14 z m 88 165 b 247 326 88 256 157 326 b 410 165 336 326 408 256 b 247 4 408 75 336 4 b 88 165 157 4 88 75 z "},"ⴱ":{"ha":1167,"x_min":0,"x_max":0,"o":"m 583 -22 b 1056 450 844 -22 1056 189 b 583 922 1056 711 844 922 b 111 450 322 922 111 711 b 583 -22 111 189 322 -22 z m 128 443 l 1039 443 b 583 -6 1035 190 836 -6 b 128 443 331 -6 132 190 z m 128 460 b 583 906 133 711 331 906 b 1039 460 836 906 1033 711 z "},"ⴲ":{"ha":1167,"x_min":0,"x_max":0,"o":"m 583 -22 b 1056 450 844 -22 1056 189 b 583 922 1056 711 844 922 b 111 450 322 922 111 711 b 583 -22 111 189 322 -22 z m 128 443 l 576 443 l 576 -6 b 128 443 326 -1 132 193 z m 128 460 b 576 906 133 708 328 901 l 576 460 z m 593 -6 l 593 443 l 1039 443 b 593 -6 1035 194 842 0 z m 593 460 l 593 906 b 1039 460 840 900 1033 707 z "},"ⴳ":{"ha":982,"x_min":0,"x_max":0,"o":"m 149 0 l 492 404 l 835 0 l 857 0 l 503 418 l 913 901 l 69 901 l 479 418 l 125 0 z m 106 885 l 875 885 l 490 432 z "},"ⴴ":{"ha":982,"x_min":0,"x_max":0,"o":"m 833 903 l 490 499 l 147 903 l 125 903 l 479 485 l 69 1 l 913 1 l 503 485 l 857 903 z m 107 18 l 492 471 l 876 18 z "},"ⴵ":{"ha":982,"x_min":0,"x_max":0,"o":"m 69 901 l 481 451 l 69 0 l 913 0 l 503 451 l 913 901 z m 107 17 l 492 439 l 875 17 z m 107 885 l 875 885 l 492 463 z "},"ⴶ":{"ha":917,"x_min":0,"x_max":0,"o":"m 450 0 l 467 0 l 467 903 l 450 903 z m 139 847 b 208 778 139 810 171 778 b 278 847 246 778 278 810 b 208 917 278 885 246 917 b 139 847 171 917 139 885 z m 639 847 b 708 778 639 810 671 778 b 778 847 746 778 778 810 b 708 917 778 885 746 917 b 639 847 671 917 639 885 z "},"ⴷ":{"ha":944,"x_min":0,"x_max":0,"o":"m 69 0 l 88 0 l 429 885 l 515 885 l 857 0 l 875 0 l 528 901 l 417 901 z "},"ⴸ":{"ha":944,"x_min":0,"x_max":0,"o":"m 875 903 l 857 903 l 515 18 l 429 18 l 88 903 l 69 903 l 417 1 l 528 1 z "},"ⴹ":{"ha":889,"x_min":0,"x_max":0,"o":"m 167 903 l 167 0 l 736 0 l 736 17 l 183 17 l 183 442 l 736 442 l 736 458 l 183 458 l 183 885 l 736 885 l 736 901 l 183 901 l 183 903 z "},"ⴺ":{"ha":889,"x_min":0,"x_max":0,"o":"m 722 0 l 722 903 l 706 903 l 706 901 l 153 901 l 153 885 l 706 885 l 706 458 l 153 458 l 153 442 l 706 442 l 706 17 l 153 17 l 153 0 z "},"ⴻ":{"ha":861,"x_min":0,"x_max":0,"o":"m 778 460 l 83 460 l 83 443 l 778 443 z m 251 119 b 431 -60 251 19 331 -60 b 610 119 531 -60 610 19 b 431 299 610 219 531 299 b 251 119 331 299 251 219 z m 251 783 b 431 604 251 683 331 604 b 610 783 531 604 610 683 b 431 963 610 883 531 963 b 251 783 331 963 251 883 z m 269 119 b 429 281 269 210 339 281 b 592 119 518 281 590 210 b 429 -42 590 29 518 -42 b 269 119 339 -42 269 29 z m 269 783 b 429 944 269 874 339 944 b 592 783 518 944 590 874 b 429 622 590 693 518 622 b 269 783 339 622 269 693 z "},"ⴼ":{"ha":1000,"x_min":0,"x_max":0,"o":"m 83 885 l 289 885 l 289 17 l 83 17 l 83 0 l 306 0 l 306 442 l 681 442 l 681 0 l 917 0 l 917 17 l 697 17 l 697 885 l 917 885 l 917 901 l 697 901 l 697 903 l 681 903 l 681 458 l 306 458 l 306 903 l 289 903 l 289 901 l 83 901 z "},"ⴽ":{"ha":976,"x_min":0,"x_max":0,"o":"m 907 901 l 183 901 l 183 903 l 167 903 l 167 0 l 188 0 l 550 454 l 886 0 l 907 0 l 561 468 z m 183 21 l 183 885 l 872 885 z "},"ⴾ":{"ha":639,"x_min":0,"x_max":0,"o":"m 194 778 b 264 847 232 778 264 810 b 194 917 264 885 232 917 b 125 847 157 917 125 885 b 194 778 125 810 157 778 z m 125 56 b 194 -14 125 18 157 -14 b 264 56 232 -14 264 18 b 194 125 264 93 232 125 b 125 56 157 125 125 93 z m 403 458 b 472 389 403 421 435 389 b 542 458 510 389 542 421 b 472 528 542 496 510 528 b 403 458 435 528 403 496 z "},"ⴿ":{"ha":976,"x_min":0,"x_max":0,"o":"m 183 1 l 907 1 l 561 435 l 907 903 l 886 903 l 550 449 l 188 903 l 167 903 l 167 0 l 183 0 z m 183 18 l 183 882 l 872 18 z "},"ⵀ":{"ha":1167,"x_min":0,"x_max":0,"o":"m 583 -22 b 1056 450 844 -22 1056 189 b 583 922 1056 711 844 922 b 111 450 322 922 111 711 b 583 -22 111 189 322 -22 z m 128 450 b 576 906 128 703 324 901 l 576 -6 b 128 450 324 -1 128 197 z m 593 -6 l 593 906 b 1039 450 844 900 1039 703 b 593 -6 1039 197 844 0 z "},"ⵁ":{"ha":1194,"x_min":0,"x_max":0,"o":"m 139 4 l 151 -7 l 268 110 b 597 -22 353 28 468 -22 b 1069 450 861 -22 1069 186 b 938 779 1069 579 1019 694 l 1056 897 l 1043 908 l 926 792 b 597 922 842 872 726 922 b 125 450 333 922 125 714 b 256 121 125 321 175 206 z m 142 450 b 597 906 142 706 342 906 b 914 779 722 906 833 858 l 268 133 b 142 450 189 214 142 325 z m 279 121 l 926 768 b 1053 450 1006 686 1053 575 b 597 -6 1053 194 853 -6 b 279 121 472 -6 361 42 z "},"ⵂ":{"ha":486,"x_min":0,"x_max":0,"o":"m 243 861 b 313 931 281 861 313 893 b 243 1000 313 968 281 1000 b 174 931 206 1000 174 968 b 243 861 174 893 206 861 z m 174 97 b 243 28 174 60 206 28 b 313 97 281 28 313 60 b 243 167 313 135 281 167 b 174 97 206 167 174 135 z m 174 375 b 243 306 174 338 206 306 b 313 375 281 306 313 338 b 243 444 313 413 281 444 b 174 375 206 444 174 413 z m 174 653 b 243 583 174 615 206 583 b 313 653 281 583 313 615 b 243 722 313 690 281 722 b 174 653 206 722 174 690 z "},"ⵃ":{"ha":885,"x_min":0,"x_max":0,"o":"m 56 0 l 75 0 l 419 538 l 794 0 l 815 0 l 429 553 l 653 901 l 633 901 z "},"ⵄ":{"ha":917,"x_min":0,"x_max":0,"o":"m 167 461 l 167 0 l 183 0 l 183 444 l 733 444 l 733 0 l 750 0 l 750 461 l 467 461 l 467 901 l 450 901 l 450 461 z "},"ⵅ":{"ha":982,"x_min":0,"x_max":0,"o":"m 500 901 l 483 901 l 483 440 l 93 901 l 69 901 l 479 418 l 125 0 l 147 0 l 490 404 l 833 0 l 857 0 l 503 418 l 913 901 l 890 901 l 500 442 z "},"ⵆ":{"ha":1014,"x_min":0,"x_max":0,"o":"m 229 681 b 299 750 267 681 299 713 b 229 819 299 788 267 819 b 160 750 192 819 160 788 b 229 681 160 713 192 681 z m 160 167 b 229 97 160 129 192 97 b 299 167 267 97 299 129 b 229 236 299 204 267 236 b 160 167 192 236 160 204 z m 715 167 b 785 97 715 129 747 97 b 854 167 822 97 854 129 b 785 236 854 204 822 236 b 715 167 747 236 715 204 z m 715 750 b 785 681 715 713 747 681 b 854 750 822 681 854 713 b 785 819 854 788 822 819 b 715 750 747 819 715 788 z "},"ⵇ":{"ha":976,"x_min":0,"x_max":0,"o":"m 907 17 l 201 17 l 907 901 l 183 901 l 183 903 l 167 903 l 167 0 l 907 0 z m 183 21 l 183 885 l 872 885 z "},"ⵈ":{"ha":1014,"x_min":0,"x_max":0,"o":"m 229 389 b 299 458 267 389 299 421 b 229 528 299 496 267 528 b 160 458 192 528 160 496 b 229 389 160 421 192 389 z m 438 458 b 507 389 438 421 469 389 b 576 458 544 389 576 421 b 507 528 576 496 544 528 b 438 458 469 528 438 496 z m 715 458 b 785 389 715 421 747 389 b 854 458 822 389 854 421 b 785 528 854 496 822 528 b 715 458 747 528 715 496 z "},"ⵉ":{"ha":833,"x_min":0,"x_max":0,"o":"m 139 111 l 694 -56 l 694 -37 l 156 122 l 156 211 l 694 397 l 694 508 l 156 692 l 156 779 l 694 939 l 694 957 l 139 792 l 139 681 l 678 496 l 678 410 l 139 222 z "},"ⵊ":{"ha":694,"x_min":0,"x_max":0,"o":"m 69 0 l 625 0 l 625 17 l 356 17 l 356 885 l 625 885 l 625 901 l 356 901 l 356 903 l 339 903 l 339 901 l 69 901 l 69 885 l 339 885 l 339 17 l 69 17 z "},"ⵋ":{"ha":875,"x_min":0,"x_max":0,"o":"m 72 0 b 438 374 290 0 414 158 b 803 0 461 158 585 0 l 806 0 l 806 17 b 446 451 568 17 446 208 b 806 885 446 694 568 885 l 806 901 l 803 901 b 438 529 585 901 461 743 b 72 901 414 743 290 901 l 69 901 l 69 885 b 429 451 307 885 429 694 b 69 17 429 208 307 17 l 69 0 z "},"ⵌ":{"ha":1125,"x_min":0,"x_max":0,"o":"m 344 0 l 361 0 l 361 235 l 761 235 l 761 0 l 778 0 l 778 235 l 1014 235 l 1014 251 l 778 251 l 778 651 l 1014 651 l 1014 668 l 778 668 l 778 903 l 761 903 l 761 668 l 361 668 l 361 903 l 344 903 l 344 668 l 111 668 l 111 651 l 344 651 l 344 251 l 111 251 l 111 235 l 344 235 z m 361 251 l 361 651 l 761 651 l 761 251 z "},"ⵍ":{"ha":847,"x_min":0,"x_max":0,"o":"m 167 0 l 186 0 l 664 871 l 664 0 l 681 0 l 681 903 l 664 903 l 664 901 l 661 901 l 183 31 l 183 903 l 167 903 z "},"ⵎ":{"ha":889,"x_min":0,"x_max":0,"o":"m 167 903 l 167 0 l 750 0 l 750 17 l 183 17 l 183 885 l 750 885 l 750 901 l 183 901 l 183 903 z "},"ⵏ":{"ha":444,"x_min":0,"x_max":0,"o":"m 214 0 l 231 0 l 231 903 l 214 903 z "},"ⵐ":{"ha":1000,"x_min":0,"x_max":0,"o":"m 111 296 l 492 296 l 492 0 l 508 0 l 508 296 l 889 296 l 889 313 l 508 313 l 508 588 l 889 588 l 889 604 l 508 604 l 508 903 l 492 903 l 492 604 l 111 604 l 111 588 l 492 588 l 492 313 l 111 313 z "},"ⵑ":{"ha":514,"x_min":0,"x_max":0,"o":"m 249 0 l 265 0 l 265 972 l 249 972 z m 188 -215 b 257 -285 188 -253 219 -285 b 326 -215 296 -285 326 -253 b 257 -146 326 -176 296 -146 b 188 -215 219 -146 188 -176 z "},"ⵒ":{"ha":917,"x_min":0,"x_max":0,"o":"m 181 885 l 704 885 l 282 536 b 167 289 211 481 167 392 b 446 -14 167 119 289 -14 b 725 289 603 -14 725 119 b 446 592 725 458 603 592 b 358 578 415 592 386 586 l 750 901 l 181 901 z m 183 289 b 446 575 183 449 299 575 b 708 289 593 575 708 449 b 446 3 708 129 593 3 b 183 289 299 3 183 129 z "},"ⵓ":{"ha":526,"x_min":0,"x_max":0,"o":"m 264 -14 b 443 165 364 -14 443 65 b 264 344 443 265 364 344 b 85 165 164 344 85 265 b 264 -14 85 65 164 -14 z m 83 736 b 263 557 83 636 163 557 b 442 736 363 557 442 636 b 263 915 442 836 363 915 b 83 736 163 915 83 836 z m 101 736 b 261 897 101 826 171 897 b 424 736 350 897 422 826 b 261 575 422 646 350 575 b 101 736 171 575 101 646 z m 103 165 b 263 326 103 256 172 326 b 425 165 351 326 424 256 b 263 4 424 75 351 4 b 103 165 172 4 103 75 z "},"ⵔ":{"ha":1167,"x_min":0,"x_max":0,"o":"m 583 -22 b 1056 450 844 -22 1056 189 b 583 922 1056 711 844 922 b 111 450 322 922 111 711 b 583 -22 111 189 322 -22 z m 128 450 b 583 906 128 703 331 906 b 1039 450 836 906 1039 703 b 583 -6 1039 197 832 -6 b 128 450 331 -6 128 197 z "},"ⵕ":{"ha":1178,"x_min":0,"x_max":0,"o":"m 624 413 l 907 129 b 583 -6 824 46 708 -6 b 128 450 331 -6 128 197 b 583 906 128 703 331 906 b 1039 450 836 906 1039 703 b 918 142 1039 331 993 222 l 635 425 z m 111 450 b 583 -22 111 189 322 -22 b 918 118 715 -22 833 31 l 1054 -18 l 1067 -7 l 931 129 b 1056 450 1008 214 1056 326 b 583 922 1056 711 844 922 b 111 450 322 922 111 711 z "},"ⵖ":{"ha":917,"x_min":0,"x_max":0,"o":"m 167 903 l 167 442 l 450 442 l 450 1 l 467 1 l 467 442 l 750 442 l 750 903 l 733 903 l 733 458 l 183 458 l 183 903 z "},"ⵗ":{"ha":486,"x_min":0,"x_max":0,"o":"m 243 736 b 313 806 281 736 313 768 b 243 875 313 843 281 875 b 174 806 206 875 174 843 b 243 736 174 768 206 736 z m 174 97 b 243 28 174 60 206 28 b 313 97 281 28 313 60 b 243 167 313 135 281 167 b 174 97 206 167 174 135 z m 174 458 b 243 389 174 421 206 389 b 313 458 281 389 313 421 b 243 528 313 496 281 528 b 174 458 206 528 174 496 z "},"ⵘ":{"ha":1014,"x_min":0,"x_max":0,"o":"m 229 681 b 299 750 267 681 299 713 b 229 819 299 788 267 819 b 160 750 192 819 160 788 b 229 681 160 713 192 681 z m 160 167 b 229 97 160 129 192 97 b 299 167 267 97 299 129 b 229 236 299 204 267 236 b 160 167 192 236 160 204 z m 438 458 b 507 389 438 421 469 389 b 576 458 544 389 576 421 b 507 528 576 496 544 528 b 438 458 469 528 438 496 z m 715 167 b 785 97 715 129 747 97 b 854 167 822 97 854 129 b 785 236 854 204 822 236 b 715 167 747 236 715 204 z m 715 750 b 785 681 715 713 747 681 b 854 750 822 681 854 713 b 785 819 854 788 822 819 b 715 750 747 819 715 788 z "},"ⵙ":{"ha":1167,"x_min":0,"x_max":0,"o":"m 583 381 b 653 450 622 381 653 413 b 583 519 653 489 622 519 b 514 450 546 519 514 489 b 583 381 514 413 546 381 z m 111 450 b 583 -22 111 186 319 -22 b 1056 450 847 -22 1056 186 b 583 922 1056 714 847 922 b 111 450 319 922 111 714 z m 128 450 b 583 906 128 706 328 906 b 1039 450 839 906 1039 706 b 583 -6 1039 194 839 -6 b 128 450 328 -6 128 194 z "},"ⵚ":{"ha":1178,"x_min":0,"x_max":0,"o":"m 624 490 l 635 478 l 918 761 b 1039 453 993 681 1039 572 b 583 -3 1039 200 836 -3 b 128 453 331 -3 128 200 b 583 908 128 706 331 908 b 907 774 708 908 824 857 z m 111 453 b 583 -19 111 192 322 -19 b 1056 453 844 -19 1056 192 b 931 774 1056 576 1008 689 l 1067 910 l 1054 921 l 918 785 b 583 925 833 872 715 925 b 111 453 322 925 111 714 z "},"ⵛ":{"ha":1033,"x_min":0,"x_max":0,"o":"m 111 450 b 583 -21 113 186 319 -21 b 881 72 686 -21 804 11 b 964 224 931 103 964 160 b 785 403 964 324 885 403 b 606 224 685 403 606 324 b 785 44 606 124 685 44 b 817 47 796 44 807 46 b 583 -4 718 7 644 -4 b 128 451 328 -4 128 196 b 583 906 128 706 328 906 b 824 851 646 906 721 894 b 785 856 811 854 799 856 b 606 676 685 856 606 776 b 785 497 606 576 685 497 b 964 676 885 497 964 576 b 890 822 964 736 935 789 b 583 922 814 888 690 922 b 111 451 319 922 113 715 z m 624 224 b 783 385 624 314 693 385 b 946 224 872 385 944 314 b 783 63 944 133 872 63 b 624 224 693 63 624 133 z m 624 676 b 783 838 624 767 693 838 b 946 676 872 838 944 767 b 783 515 944 586 872 515 b 624 676 693 515 624 586 z "},"ⵜ":{"ha":694,"x_min":0,"x_max":0,"o":"m 69 442 l 339 442 l 339 0 l 356 0 l 356 442 l 625 442 l 625 458 l 356 458 l 356 903 l 339 903 l 339 458 l 69 458 z "},"ⵝ":{"ha":899,"x_min":0,"x_max":0,"o":"m 807 0 l 829 0 l 461 451 l 829 901 l 807 901 l 450 464 l 92 901 l 69 901 l 439 451 l 69 0 l 92 0 l 450 438 z "},"ⵞ":{"ha":1103,"x_min":0,"x_max":0,"o":"m 560 460 l 374 460 l 374 646 l 357 646 l 357 460 l 133 460 l 133 443 l 357 443 l 357 257 l 374 258 l 374 443 l 560 443 z m 111 450 b 583 -21 113 186 319 -21 b 881 72 686 -21 804 11 b 964 224 931 103 964 160 b 785 403 964 324 885 403 b 606 224 685 403 606 324 b 785 44 606 124 685 44 b 817 47 796 44 807 46 b 583 -4 718 7 644 -4 b 128 451 328 -4 128 196 b 583 906 128 706 328 906 b 824 851 646 906 721 894 b 785 856 811 854 799 856 b 606 676 685 856 606 776 b 785 497 606 576 685 497 b 964 676 885 497 964 576 b 890 822 964 736 935 789 b 583 922 814 888 690 922 b 111 451 319 922 113 715 z m 624 224 b 783 385 624 314 693 385 b 946 224 872 385 944 314 b 783 63 944 133 872 63 b 624 224 693 63 624 133 z m 624 676 b 783 838 624 767 693 838 b 946 676 872 838 944 767 b 783 515 944 586 872 515 b 624 676 693 515 624 586 z "},"ⵟ":{"ha":833,"x_min":0,"x_max":0,"o":"m 167 903 l 167 0 l 764 0 l 764 17 l 183 17 l 183 442 l 417 442 l 417 256 l 433 256 l 433 442 l 619 442 l 619 458 l 433 458 l 433 644 l 417 644 l 417 458 l 183 458 l 183 885 l 764 885 l 764 901 l 183 901 l 183 903 z "},"ⵠ":{"ha":889,"x_min":0,"x_max":0,"o":"m 69 0 l 819 0 l 500 903 l 389 903 z m 93 17 l 401 886 l 489 886 l 796 17 z "},"ⵡ":{"ha":903,"x_min":0,"x_max":0,"o":"m 167 0 l 736 0 l 736 903 l 719 903 l 719 17 l 183 17 l 183 903 l 167 903 z "},"ⵢ":{"ha":833,"x_min":0,"x_max":0,"o":"m 167 -56 l 667 306 l 667 417 l 183 632 l 183 719 l 667 940 l 667 957 l 167 732 l 167 621 l 650 404 l 649 314 l 167 -33 z "},"ⵣ":{"ha":1100,"x_min":0,"x_max":0,"o":"m 100 901 l 83 901 b 542 499 117 676 308 503 l 542 403 b 83 0 308 399 117 225 l 100 0 b 542 386 142 232 326 382 l 542 0 l 558 0 l 558 386 b 1000 0 774 382 960 232 l 1017 0 b 558 403 983 225 792 399 l 558 499 b 1017 901 792 503 983 676 l 1000 901 b 558 515 960 669 774 519 l 558 903 l 542 903 l 542 515 b 100 901 326 519 142 669 z "},"ⵤ":{"ha":706,"x_min":0,"x_max":0,"o":"m 167 0 l 183 0 l 183 878 l 543 411 l 563 411 l 186 901 l 167 901 z "},"ⵥ":{"ha":1069,"x_min":0,"x_max":0,"o":"m 882 460 l 543 460 l 543 568 b 986 901 751 572 928 713 l 969 901 b 543 585 910 726 747 589 l 543 903 l 526 903 l 526 585 b 100 901 322 589 160 726 l 83 901 b 526 568 142 713 318 572 l 526 460 l 188 460 l 188 443 l 526 443 l 526 333 b 83 0 318 329 142 189 l 100 0 b 526 317 160 175 322 313 l 526 0 l 543 0 l 543 317 b 969 0 747 313 910 175 l 986 0 b 543 333 928 189 751 329 l 543 443 l 882 443 z "},"ⵦ":{"ha":901,"x_min":0,"x_max":0,"o":"m 832 47 l 832 67 l 86 406 l 86 494 l 832 838 l 832 853 l 69 506 l 69 394 z "},"ⵧ":{"ha":1042,"x_min":0,"x_max":0,"o":"m 69 442 l 472 442 l 472 458 l 69 458 z m 569 442 l 972 442 l 972 458 l 569 458 z "}," ":{"ha":139,"x_min":0,"x_max":0,"o":""},"⵰":{"ha":694,"x_min":0,"x_max":0,"o":"m 528 390 b -69 -219 528 15 292 -221 l -69 -203 b 511 390 283 -203 511 22 l 511 901 l 528 901 z "},".":{"ha":375,"x_min":0,"x_max":0,"o":"m 188 -7 b 257 63 226 -7 257 25 b 188 132 257 101 226 132 b 118 63 150 132 118 101 b 188 -7 118 25 150 -7 z "},",":{"ha":347,"x_min":0,"x_max":0,"o":"m 28 -278 l 46 -278 l 188 0 l 188 169 l 171 169 l 171 6 z "},":":{"ha":514,"x_min":0,"x_max":0,"o":"m 257 -7 b 326 63 296 -7 326 25 b 257 132 326 101 296 132 b 188 63 219 132 188 101 b 257 -7 188 25 219 -7 z m 188 458 b 257 389 188 421 219 389 b 326 458 296 389 326 421 b 257 528 326 497 296 528 b 188 458 219 528 188 497 z "},";":{"ha":514,"x_min":0,"x_max":0,"o":"m 106 -278 l 124 -278 l 265 0 l 265 169 l 249 169 l 249 6 z m 188 458 b 257 389 188 421 219 389 b 326 458 296 389 326 421 b 257 528 326 497 296 528 b 188 458 219 528 188 497 z "},"…":{"ha":958,"x_min":0,"x_max":0,"o":"m 188 -7 b 257 63 226 -7 257 25 b 188 132 257 101 226 132 b 118 63 150 132 118 101 b 188 -7 118 25 150 -7 z m 410 63 b 479 -7 410 25 442 -7 b 549 63 518 -7 549 25 b 479 132 549 101 518 132 b 410 63 442 132 410 101 z m 701 63 b 771 -7 701 25 733 -7 b 840 63 810 -7 840 25 b 771 132 840 101 810 132 b 701 63 733 132 701 101 z "},"!":{"ha":514,"x_min":0,"x_max":0,"o":"m 249 222 l 265 222 l 265 974 l 249 974 z m 188 63 b 257 -7 188 25 219 -7 b 326 63 296 -7 326 25 b 257 132 326 101 296 132 b 188 63 219 132 188 101 z "},"¡":{"ha":514,"x_min":0,"x_max":0,"o":"m 265 681 l 249 681 l 249 -71 l 265 -71 z m 188 840 b 257 771 188 801 218 771 b 326 840 294 771 326 801 b 257 910 326 878 294 910 b 188 840 218 910 188 878 z "},"?":{"ha":799,"x_min":0,"x_max":0,"o":"m 657 675 b 375 393 657 506 544 393 l 282 393 l 282 222 l 299 222 l 299 376 l 375 376 b 674 675 554 376 674 496 b 375 974 674 854 554 974 l 167 974 l 167 957 l 375 957 b 657 675 544 957 657 844 z m 221 63 b 290 -7 221 25 253 -7 b 360 63 329 -7 360 25 b 290 132 360 101 329 132 b 221 63 253 132 221 101 z "},"¿":{"ha":743,"x_min":0,"x_max":0,"o":"m 86 226 b 368 508 86 396 199 508 l 461 508 l 461 679 l 444 679 l 444 525 l 368 525 b 69 226 189 525 69 406 b 368 -72 69 47 189 -72 l 576 -72 l 576 -56 l 368 -56 b 86 226 199 -56 86 57 z m 383 839 b 453 769 383 800 414 769 b 522 839 490 769 522 800 b 453 908 522 876 490 908 b 383 839 414 908 383 876 z "},"·":{"ha":375,"x_min":0,"x_max":0,"o":"m 188 389 b 257 458 226 389 257 421 b 188 528 257 497 226 528 b 118 458 150 528 118 497 b 188 389 118 421 150 389 z "},"•":{"ha":493,"x_min":0,"x_max":0,"o":"m 247 356 b 351 460 306 356 351 403 b 247 564 351 518 306 564 b 143 460 190 564 143 518 b 247 356 143 403 190 356 z "},"*":{"ha":717,"x_min":0,"x_max":0,"o":"m 350 985 l 350 772 l 199 924 l 189 911 l 339 761 l 125 761 l 126 744 l 339 744 l 188 593 l 200 583 l 350 733 l 350 519 l 367 519 l 367 733 l 518 582 l 528 594 l 378 744 l 592 744 l 590 761 l 378 761 l 529 913 l 517 922 l 367 772 l 367 985 z "},"#":{"ha":1069,"x_min":0,"x_max":0,"o":"m 208 608 l 400 608 l 303 293 l 125 293 l 125 276 l 297 276 l 213 0 l 231 0 l 315 276 l 644 276 l 560 0 l 578 0 l 663 276 l 861 276 l 861 293 l 668 293 l 765 608 l 944 608 l 944 625 l 771 625 l 856 901 l 838 901 l 753 625 l 424 625 l 508 901 l 490 901 l 406 625 l 208 625 z m 321 293 l 418 608 l 747 608 l 650 293 z "},"/":{"ha":694,"x_min":0,"x_max":0,"o":"m 199 0 l 217 0 l 494 901 l 476 901 z "},"\\":{"ha":694,"x_min":0,"x_max":0,"o":"m 496 0 l 218 901 l 200 901 l 478 0 z "},"-":{"ha":736,"x_min":0,"x_max":0,"o":"m 139 381 l 597 381 l 597 397 l 139 397 z "},"­":{"ha":736,"x_min":0,"x_max":0,"o":"m 139 381 l 597 381 l 597 397 l 139 397 z "},"–":{"ha":882,"x_min":0,"x_max":0,"o":"m 139 381 l 743 381 l 743 397 l 139 397 z "},"—":{"ha":1021,"x_min":0,"x_max":0,"o":"m 139 381 l 882 381 l 882 397 l 139 397 z "},"_":{"ha":993,"x_min":0,"x_max":0,"o":"m 125 -44 l 868 -44 l 868 -28 l 125 -28 z "},"(":{"ha":526,"x_min":0,"x_max":0,"o":"m 217 450 b 306 0 217 290 249 139 l 322 0 b 233 450 265 139 233 290 b 322 901 233 610 265 763 l 306 901 b 217 450 249 768 217 611 z "},")":{"ha":513,"x_min":0,"x_max":0,"o":"m 296 450 b 207 901 296 611 264 768 l 190 901 b 279 450 247 763 279 610 b 190 0 279 290 247 139 l 207 0 b 296 450 264 139 296 290 z "},"{":{"ha":714,"x_min":0,"x_max":0,"o":"m 533 885 l 589 885 l 589 901 l 533 901 b 292 658 386 901 292 806 l 292 460 l 308 460 l 308 658 b 533 885 308 796 397 885 z m 125 443 l 292 443 l 292 460 l 125 460 z m 292 243 b 533 0 292 96 386 0 l 589 0 l 589 17 l 533 17 b 308 243 397 17 308 106 l 308 443 l 292 443 z "},"}":{"ha":781,"x_min":0,"x_max":0,"o":"m 247 885 b 472 658 383 885 472 796 l 472 460 l 489 460 l 489 658 b 247 901 489 806 394 901 l 192 901 l 192 885 z m 192 0 l 247 0 b 489 243 394 0 489 96 l 489 443 l 472 443 l 472 243 b 247 17 472 106 383 17 l 192 17 z m 489 443 l 656 443 l 656 460 l 489 460 z "},"[":{"ha":639,"x_min":0,"x_max":0,"o":"m 167 965 l 167 -65 l 472 -65 l 472 -49 l 183 -49 l 183 949 l 472 949 l 472 965 z "},"]":{"ha":639,"x_min":0,"x_max":0,"o":"m 472 -65 l 472 965 l 167 965 l 167 949 l 456 949 l 456 -49 l 167 -49 l 167 -65 z "},"‚":{"ha":446,"x_min":0,"x_max":0,"o":"m 132 -251 l 150 -251 l 290 68 l 272 68 z "},"„":{"ha":718,"x_min":0,"x_max":0,"o":"m 143 -251 l 161 -251 l 301 68 l 283 68 z m 415 -251 l 433 -251 l 574 68 l 556 68 z "},"“":{"ha":718,"x_min":0,"x_max":0,"o":"m 143 582 l 161 582 l 301 901 l 283 901 z m 415 582 l 433 582 l 574 901 l 556 901 z "},"”":{"ha":724,"x_min":0,"x_max":0,"o":"m 143 582 l 161 582 l 301 901 l 283 901 z m 421 582 l 439 582 l 579 901 l 561 901 z "},"‘":{"ha":446,"x_min":0,"x_max":0,"o":"m 132 582 l 150 582 l 290 901 l 272 901 z "},"’":{"ha":446,"x_min":0,"x_max":0,"o":"m 143 582 l 161 582 l 301 901 l 283 901 z "},"«":{"ha":857,"x_min":0,"x_max":0,"o":"m 656 181 l 513 451 l 656 722 l 636 722 l 493 451 l 636 181 z m 201 451 l 344 181 l 364 181 l 221 451 l 364 722 l 344 722 z "},"»":{"ha":857,"x_min":0,"x_max":0,"o":"m 201 181 l 221 181 l 364 451 l 221 722 l 201 722 l 344 451 z m 493 181 l 513 181 l 656 451 l 513 722 l 493 722 l 636 451 z "},"‹":{"ha":565,"x_min":0,"x_max":0,"o":"m 364 181 l 221 451 l 364 722 l 344 722 l 201 451 l 344 181 z "},"›":{"ha":565,"x_min":0,"x_max":0,"o":"m 201 181 l 221 181 l 364 451 l 221 722 l 201 722 l 344 451 z "},"\"":{"ha":632,"x_min":0,"x_max":0,"o":"m 196 590 l 213 590 l 213 901 l 196 901 z m 418 590 l 435 590 l 435 901 l 418 901 z "},"'":{"ha":396,"x_min":0,"x_max":0,"o":"m 189 590 l 206 590 l 206 901 l 189 901 z "},"@":{"ha":1656,"x_min":0,"x_max":0,"o":"m 526 124 l 1106 124 l 1110 124 l 1151 0 l 1167 0 l 1126 124 b 1489 524 1332 135 1489 307 b 831 1078 1489 833 1199 1078 b 167 390 458 1078 167 775 b 901 -219 167 46 490 -222 l 901 -203 b 183 390 494 -203 183 57 b 831 1061 183 765 468 1061 b 1472 524 1190 1061 1472 825 b 1121 140 1472 314 1319 149 l 904 799 l 746 799 z m 549 140 l 758 782 l 890 782 l 1104 140 z "},"&":{"ha":917,"x_min":0,"x_max":0,"o":"m 333 0 l 847 0 l 847 17 l 660 17 l 660 489 l 847 489 l 847 506 l 660 506 l 660 903 l 643 903 l 643 901 l 375 901 b 161 694 240 901 161 810 b 289 503 161 604 207 531 b 69 253 164 482 69 381 b 333 0 69 111 186 0 z m 86 253 b 333 489 86 385 194 489 l 369 489 l 375 489 l 643 489 l 643 17 l 333 17 b 86 253 194 17 86 121 z m 178 694 b 375 885 178 801 249 885 l 643 885 l 643 506 l 363 506 b 178 694 244 508 178 590 z "},"°":{"ha":525,"x_min":0,"x_max":0,"o":"m 263 557 b 442 736 363 557 442 636 b 263 915 442 836 363 915 b 83 736 163 915 83 836 b 263 557 83 636 163 557 z m 101 736 b 261 897 101 826 171 897 b 424 736 350 897 422 826 b 261 575 422 646 350 575 b 101 736 171 575 101 646 z "},"|":{"ha":431,"x_min":0,"x_max":0,"o":"m 207 -139 l 224 -139 l 224 1042 l 207 1042 z "},"¦":{"ha":431,"x_min":0,"x_max":0,"o":"m 207 396 l 207 -139 l 224 -139 l 224 396 z m 207 507 l 224 507 l 224 1042 l 207 1042 z "},"†":{"ha":672,"x_min":0,"x_max":0,"o":"m 328 344 l 344 344 l 344 771 l 547 771 l 547 788 l 344 788 l 344 985 l 328 985 l 328 788 l 125 788 l 126 771 l 328 771 z "},"‡":{"ha":672,"x_min":0,"x_max":0,"o":"m 328 344 l 344 344 l 344 521 l 547 521 l 547 538 l 344 538 l 344 792 l 547 792 l 547 808 l 344 808 l 344 985 l 328 985 l 328 808 l 125 808 l 126 792 l 328 792 l 328 538 l 125 538 l 126 521 l 328 521 z "},"¢":{"ha":764,"x_min":0,"x_max":0,"o":"m 653 107 l 482 107 l 482 796 l 653 796 l 653 813 l 482 813 l 482 903 l 465 903 l 465 813 l 418 813 b 111 451 240 813 113 683 b 418 90 113 219 240 90 l 465 90 l 465 0 l 482 0 l 482 90 l 653 90 z m 128 451 b 418 796 128 667 244 796 l 465 796 l 465 107 l 418 107 b 128 451 244 107 128 236 z "},"$":{"ha":779,"x_min":0,"x_max":0,"o":"m 190 0 l 369 0 l 382 0 l 382 -125 l 399 -125 l 399 1 b 668 268 576 14 668 142 b 369 531 668 400 569 531 l 360 531 l 360 514 l 369 514 b 651 267 558 514 651 390 b 369 17 651 142 557 17 l 190 17 z m 111 635 b 410 372 111 503 211 372 l 419 372 l 419 389 l 410 389 b 128 636 222 389 128 513 b 410 886 128 761 222 886 l 546 886 l 546 903 l 410 903 l 399 903 l 399 1026 l 382 1026 l 382 901 b 111 635 201 890 111 761 z "},"€":{"ha":854,"x_min":0,"x_max":0,"o":"m 688 369 l 154 369 b 149 451 150 396 149 424 b 154 532 149 479 150 506 l 688 532 l 688 549 l 157 549 b 569 886 193 757 350 886 l 736 886 l 736 903 l 569 903 b 140 549 340 903 178 764 l 69 549 l 69 532 l 138 532 b 132 451 133 506 132 479 b 138 369 132 424 133 396 l 69 369 l 69 353 l 140 353 b 569 0 178 138 340 0 l 736 0 l 736 17 l 569 17 b 157 353 350 17 194 147 l 688 353 z "},"£":{"ha":951,"x_min":0,"x_max":0,"o":"m 111 0 l 826 0 l 826 299 l 810 299 l 810 17 l 197 17 l 197 393 l 542 393 l 542 410 l 197 410 l 197 618 b 479 900 197 776 321 900 b 761 618 638 900 761 776 l 761 549 l 778 549 l 778 618 b 479 917 778 785 646 917 b 181 618 313 917 181 785 l 181 410 l 69 410 l 69 393 l 181 393 l 181 17 l 111 17 z "},"¥":{"ha":833,"x_min":0,"x_max":0,"o":"m 408 0 l 425 0 l 425 100 l 708 100 l 708 117 l 425 117 l 425 279 l 708 279 l 708 296 l 425 296 l 425 399 l 472 399 l 719 903 l 701 903 l 461 415 l 372 415 l 132 903 l 114 903 l 361 399 l 408 399 l 408 296 l 125 296 l 125 279 l 408 279 l 408 117 l 125 117 l 125 100 l 408 100 z "},"+":{"ha":875,"x_min":0,"x_max":0,"o":"m 139 381 l 429 381 l 429 90 l 446 90 l 446 381 l 736 381 l 736 397 l 446 397 l 446 688 l 429 688 l 429 397 l 139 397 z "},"−":{"ha":694,"x_min":0,"x_max":0,"o":"m 139 381 l 556 381 l 556 397 l 139 397 z "},"×":{"ha":808,"x_min":0,"x_max":0,"o":"m 631 626 l 400 396 l 178 611 l 167 599 l 389 385 l 167 163 l 178 150 l 400 372 l 624 157 l 635 169 l 413 385 l 642 614 z "},"=":{"ha":736,"x_min":0,"x_max":0,"o":"m 139 242 l 597 242 l 597 258 l 139 258 z m 139 519 l 597 519 l 597 536 l 139 536 z "},"^":{"ha":819,"x_min":0,"x_max":0,"o":"m 69 492 l 89 492 l 365 885 l 454 885 l 731 492 l 750 492 l 465 901 l 354 901 z "},"%":{"ha":1178,"x_min":0,"x_max":0,"o":"m 372 0 l 390 0 l 806 901 l 788 901 z m 111 736 b 290 557 111 636 190 557 b 469 736 390 557 469 636 b 290 915 469 836 390 915 b 111 736 190 915 111 836 z m 129 736 b 289 897 129 826 199 897 b 451 736 378 897 450 826 b 289 575 450 646 378 575 b 129 736 199 575 129 646 z m 708 165 b 888 -14 708 65 788 -14 b 1067 165 988 -14 1067 65 b 888 344 1067 265 988 344 b 708 165 788 344 708 265 z m 726 165 b 886 326 726 256 796 326 b 1049 165 975 326 1047 256 b 886 4 1047 75 975 4 b 726 165 796 4 726 75 z "},"◊":{"ha":858,"x_min":0,"x_max":0,"o":"m 417 0 l 442 0 l 719 449 l 442 901 l 417 901 l 139 449 z m 158 449 l 429 890 l 700 449 l 429 11 z "},"⵿":{"ha":0,"x_min":0,"x_max":0,"o":"m -694 -222 b -625 -153 -657 -222 -625 -190 b -694 -83 -625 -115 -657 -83 b -764 -153 -732 -83 -764 -115 b -694 -222 -764 -190 -732 -222 z m -486 -153 b -417 -222 -486 -190 -454 -222 b -347 -153 -379 -222 -347 -190 b -417 -83 -347 -115 -379 -83 b -486 -153 -454 -83 -486 -115 z m -208 -153 b -139 -222 -208 -190 -176 -222 b -69 -153 -101 -222 -69 -190 b -139 -83 -69 -115 -101 -83 b -208 -153 -176 -83 -208 -115 z m 69 -153 b 139 -222 69 -190 101 -222 b 208 -153 176 -222 208 -190 b 139 -83 208 -115 176 -83 b 69 -153 101 -83 69 -115 z m 347 -153 b 417 -222 347 -190 379 -222 b 486 -153 454 -222 486 -190 b 417 -83 486 -115 454 -83 b 347 -153 379 -83 347 -115 z m 625 -153 b 694 -222 625 -190 657 -222 b 764 -153 732 -222 764 -190 b 694 -83 764 -115 732 -83 b 625 -153 657 -83 625 -115 z "},"̈":{"ha":0,"x_min":0,"x_max":0,"o":"m 431 1028 b 460 1057 447 1028 460 1040 b 431 1086 460 1074 447 1086 b 401 1057 414 1086 401 1074 b 431 1028 401 1040 414 1028 z m 179 1057 b 208 1028 179 1040 192 1028 b 238 1057 225 1028 238 1040 b 208 1086 238 1074 225 1086 b 179 1057 192 1086 179 1074 z "},"̇":{"ha":0,"x_min":0,"x_max":0,"o":"m 168 1028 b 197 1057 185 1028 197 1040 b 168 1086 197 1074 185 1086 b 139 1057 151 1086 139 1074 b 168 1028 139 1040 151 1028 z "},"̀":{"ha":0,"x_min":0,"x_max":0,"o":"m 292 972 l 214 1111 l 194 1111 l 272 972 z "},"́":{"ha":0,"x_min":0,"x_max":0,"o":"m 194 972 l 214 972 l 292 1111 l 272 1111 z "},"̋":{"ha":0,"x_min":0,"x_max":0,"o":"m 432 972 l 450 972 l 528 1222 l 510 1222 z m 181 972 l 199 972 l 276 1222 l 258 1222 z "},"̂":{"ha":0,"x_min":0,"x_max":0,"o":"m 139 974 l 164 974 l 313 1100 l 461 974 l 486 974 l 325 1111 l 300 1111 z "},"̌":{"ha":0,"x_min":0,"x_max":0,"o":"m 486 1111 l 461 1111 l 313 985 l 164 1111 l 139 1111 l 300 974 l 325 974 z "},"̆":{"ha":0,"x_min":0,"x_max":0,"o":"m 156 1111 l 139 1111 b 276 971 139 1026 194 971 b 414 1111 358 971 414 1026 l 397 1111 b 276 988 397 1036 350 988 b 156 1111 203 988 156 1036 z "},"̊":{"ha":0,"x_min":0,"x_max":0,"o":"m 243 971 b 347 1075 300 971 347 1017 b 243 1179 347 1133 300 1179 b 139 1075 183 1179 139 1133 b 243 971 139 1017 183 971 z m 154 1075 b 243 1164 156 1125 194 1164 b 331 1075 293 1164 332 1125 b 243 986 332 1025 293 986 b 154 1075 194 986 156 1025 z "},"̃":{"ha":0,"x_min":0,"x_max":0,"o":"m 139 974 l 156 974 b 233 1101 156 1053 188 1101 b 447 969 308 1101 367 969 b 540 1111 496 969 540 1017 l 524 1111 b 446 986 524 1028 486 986 b 233 1118 374 986 322 1118 b 139 974 179 1118 139 1065 z "},"̄":{"ha":0,"x_min":0,"x_max":0,"o":"m 139 1047 l 597 1047 l 597 1064 l 139 1064 z "},"̒":{"ha":0,"x_min":0,"x_max":0,"o":"m 276 1292 l 200 1139 l 200 994 l 217 994 l 217 1139 l 293 1292 z "},"̦":{"ha":0,"x_min":0,"x_max":0,"o":"m 193 -278 l 211 -278 l 311 -64 l 293 -64 z "},"̧":{"ha":0,"x_min":0,"x_max":0,"o":"m 181 -301 l 181 -318 b 321 -181 265 -318 321 -262 b 181 -43 321 -99 265 -43 l 181 -60 b 304 -181 256 -60 304 -107 b 181 -301 304 -254 256 -301 z "},"̨":{"ha":0,"x_min":0,"x_max":0,"o":"m 189 -278 l 472 -278 l 472 -261 l 215 -261 l 338 0 l 322 6 z "},"¨":{"ha":639,"x_min":0,"x_max":0,"o":"m 431 1028 b 460 1057 447 1028 460 1040 b 431 1086 460 1074 447 1086 b 401 1057 414 1086 401 1074 b 431 1028 401 1040 414 1028 z m 179 1057 b 208 1028 179 1040 192 1028 b 238 1057 225 1028 238 1040 b 208 1086 238 1074 225 1086 b 179 1057 192 1086 179 1074 z "},"˙":{"ha":417,"x_min":0,"x_max":0,"o":"m 208 1028 b 238 1057 225 1028 238 1040 b 208 1086 238 1074 225 1086 b 179 1057 192 1086 179 1074 b 208 1028 179 1040 192 1028 z "},"`":{"ha":736,"x_min":0,"x_max":0,"o":"m 292 972 l 214 1111 l 194 1111 l 272 972 z "},"´":{"ha":736,"x_min":0,"x_max":0,"o":"m 194 972 l 214 972 l 292 1111 l 272 1111 z "},"˝":{"ha":736,"x_min":0,"x_max":0,"o":"m 432 972 l 450 972 l 528 1222 l 510 1222 z m 181 972 l 199 972 l 276 1222 l 258 1222 z "},"ˆ":{"ha":625,"x_min":0,"x_max":0,"o":"m 139 974 l 164 974 l 313 1100 l 461 974 l 486 974 l 325 1111 l 300 1111 z "},"ˇ":{"ha":625,"x_min":0,"x_max":0,"o":"m 486 1111 l 461 1111 l 313 985 l 164 1111 l 139 1111 l 300 974 l 325 974 z "},"˘":{"ha":553,"x_min":0,"x_max":0,"o":"m 156 1111 l 139 1111 b 276 971 139 1026 194 971 b 414 1111 358 971 414 1026 l 397 1111 b 276 988 397 1036 350 988 b 156 1111 203 988 156 1036 z "},"˚":{"ha":517,"x_min":0,"x_max":0,"o":"m 243 971 b 347 1075 300 971 347 1017 b 243 1179 347 1133 300 1179 b 139 1075 183 1179 139 1133 b 243 971 139 1017 183 971 z m 154 1075 b 243 1164 156 1125 194 1164 b 331 1075 293 1164 332 1125 b 243 986 332 1025 293 986 b 154 1075 194 986 156 1025 z "},"˜":{"ha":672,"x_min":0,"x_max":0,"o":"m 139 974 l 156 974 b 233 1101 156 1053 188 1101 b 447 969 308 1101 367 969 b 540 1111 496 969 540 1017 l 524 1111 b 446 986 524 1028 486 986 b 233 1118 374 986 322 1118 b 139 974 179 1118 139 1065 z "},"¯":{"ha":736,"x_min":0,"x_max":0,"o":"m 139 1047 l 597 1047 l 597 1064 l 139 1064 z "},"¸":{"ha":418,"x_min":0,"x_max":0,"o":"m 181 -301 l 181 -318 b 321 -181 265 -318 321 -262 b 181 -43 321 -99 265 -43 l 181 -60 b 304 -181 256 -60 304 -107 b 181 -301 304 -254 256 -301 z "},"˛":{"ha":611,"x_min":0,"x_max":0,"o":"m 189 -278 l 472 -278 l 472 -261 l 215 -261 l 338 0 l 322 6 z "},"ʼ":{"ha":446,"x_min":0,"x_max":0,"o":"m 143 582 l 161 582 l 301 901 l 283 901 z "}}}
